<mxfile host="65bd71144e">
    <diagram name="MVP" id="XXODjeO0hZeA9_3kWAO-">
        <mxGraphModel dx="2404" dy="1524" grid="1" gridSize="10" guides="1" tooltips="1" connect="1" arrows="1" fold="1" page="0" pageScale="1" pageWidth="1920" pageHeight="1200" math="0" shadow="0">
            <root>
                <mxCell id="jIJPH-z44TZfYb5a6Cpk-0"/>
                <mxCell id="jIJPH-z44TZfYb5a6Cpk-1" parent="jIJPH-z44TZfYb5a6Cpk-0"/>
                <mxCell id="tmnh8rA0YuHe_R3HbrMW-127" value="" style="rounded=0;whiteSpace=wrap;html=1;fillColor=none;strokeWidth=4;" parent="jIJPH-z44TZfYb5a6Cpk-1" vertex="1">
                    <mxGeometry x="-630" y="-61" width="2344.04" height="1510" as="geometry"/>
                </mxCell>
                <mxCell id="rmeA39a_A7FZcaxeAZvz-3" value="ExcelController" style="html=1;fontSize=18;align=left;verticalAlign=top;labelBorderColor=none;whiteSpace=wrap;spacing=10;" parent="jIJPH-z44TZfYb5a6Cpk-1" vertex="1">
                    <mxGeometry x="40" y="40" width="500" height="500" as="geometry"/>
                </mxCell>
                <mxCell id="rmeA39a_A7FZcaxeAZvz-4" value="ExcelModel" style="html=1;fontSize=18;align=left;verticalAlign=top;labelBorderColor=none;whiteSpace=wrap;spacing=10;" parent="jIJPH-z44TZfYb5a6Cpk-1" vertex="1">
                    <mxGeometry x="-580" y="590" width="875" height="810" as="geometry"/>
                </mxCell>
                <mxCell id="rmeA39a_A7FZcaxeAZvz-5" value="ExcelSheet" style="html=1;fontSize=18;align=left;verticalAlign=top;labelBorderColor=none;whiteSpace=wrap;spacing=10;" parent="jIJPH-z44TZfYb5a6Cpk-1" vertex="1">
                    <mxGeometry x="330" y="590" width="1210" height="810" as="geometry"/>
                </mxCell>
                <mxCell id="rmeA39a_A7FZcaxeAZvz-6" value="ExcelRequest" style="html=1;fontSize=18;align=left;verticalAlign=top;labelBorderColor=none;whiteSpace=wrap;spacing=10;" parent="jIJPH-z44TZfYb5a6Cpk-1" vertex="1">
                    <mxGeometry x="602" y="48" width="988" height="500" as="geometry"/>
                </mxCell>
                <mxCell id="rmeA39a_A7FZcaxeAZvz-7" value="ExcelSheet" style="shape=table;startSize=30;container=1;collapsible=0;childLayout=tableLayout;fontStyle=1;align=center;labelBorderColor=none;fontSize=18;" parent="jIJPH-z44TZfYb5a6Cpk-1" vertex="1">
                    <mxGeometry x="-550" y="265" width="240" height="240" as="geometry"/>
                </mxCell>
                <mxCell id="rmeA39a_A7FZcaxeAZvz-8" value="" style="shape=tableRow;horizontal=0;startSize=0;swimlaneHead=0;swimlaneBody=0;top=0;left=0;bottom=0;right=0;collapsible=0;dropTarget=0;fillColor=none;points=[[0,0.5],[1,0.5]];portConstraint=eastwest;labelBorderColor=none;fontSize=18;" parent="rmeA39a_A7FZcaxeAZvz-7" vertex="1">
                    <mxGeometry y="30" width="240" height="70" as="geometry"/>
                </mxCell>
                <mxCell id="rmeA39a_A7FZcaxeAZvz-9" value="id" style="shape=partialRectangle;html=1;whiteSpace=wrap;connectable=0;fillColor=none;top=0;left=0;bottom=0;right=0;overflow=hidden;labelBorderColor=none;fontSize=18;" parent="rmeA39a_A7FZcaxeAZvz-8" vertex="1">
                    <mxGeometry width="80" height="70" as="geometry">
                        <mxRectangle width="80" height="70" as="alternateBounds"/>
                    </mxGeometry>
                </mxCell>
                <mxCell id="rmeA39a_A7FZcaxeAZvz-10" value="name" style="shape=partialRectangle;html=1;whiteSpace=wrap;connectable=0;fillColor=none;top=0;left=0;bottom=0;right=0;overflow=hidden;labelBorderColor=none;fontSize=18;" parent="rmeA39a_A7FZcaxeAZvz-8" vertex="1">
                    <mxGeometry x="80" width="80" height="70" as="geometry">
                        <mxRectangle width="80" height="70" as="alternateBounds"/>
                    </mxGeometry>
                </mxCell>
                <mxCell id="rmeA39a_A7FZcaxeAZvz-11" value="total" style="shape=partialRectangle;html=1;whiteSpace=wrap;connectable=0;fillColor=none;top=0;left=0;bottom=0;right=0;overflow=hidden;labelBorderColor=none;fontSize=18;" parent="rmeA39a_A7FZcaxeAZvz-8" vertex="1">
                    <mxGeometry x="160" width="80" height="70" as="geometry">
                        <mxRectangle width="80" height="70" as="alternateBounds"/>
                    </mxGeometry>
                </mxCell>
                <mxCell id="rmeA39a_A7FZcaxeAZvz-12" value="" style="shape=tableRow;horizontal=0;startSize=0;swimlaneHead=0;swimlaneBody=0;top=0;left=0;bottom=0;right=0;collapsible=0;dropTarget=0;fillColor=none;points=[[0,0.5],[1,0.5]];portConstraint=eastwest;labelBorderColor=none;fontSize=18;" parent="rmeA39a_A7FZcaxeAZvz-7" vertex="1">
                    <mxGeometry y="100" width="240" height="70" as="geometry"/>
                </mxCell>
                <mxCell id="rmeA39a_A7FZcaxeAZvz-13" value="1" style="shape=partialRectangle;html=1;whiteSpace=wrap;connectable=0;fillColor=none;top=0;left=0;bottom=0;right=0;overflow=hidden;labelBorderColor=none;fontSize=18;" parent="rmeA39a_A7FZcaxeAZvz-12" vertex="1">
                    <mxGeometry width="80" height="70" as="geometry">
                        <mxRectangle width="80" height="70" as="alternateBounds"/>
                    </mxGeometry>
                </mxCell>
                <mxCell id="rmeA39a_A7FZcaxeAZvz-14" value="Pi" style="shape=partialRectangle;html=1;whiteSpace=wrap;connectable=0;fillColor=none;top=0;left=0;bottom=0;right=0;overflow=hidden;labelBorderColor=none;fontSize=18;" parent="rmeA39a_A7FZcaxeAZvz-12" vertex="1">
                    <mxGeometry x="80" width="80" height="70" as="geometry">
                        <mxRectangle width="80" height="70" as="alternateBounds"/>
                    </mxGeometry>
                </mxCell>
                <mxCell id="rmeA39a_A7FZcaxeAZvz-15" value="3.14" style="shape=partialRectangle;html=1;whiteSpace=wrap;connectable=0;fillColor=none;top=0;left=0;bottom=0;right=0;overflow=hidden;labelBorderColor=none;fontSize=18;" parent="rmeA39a_A7FZcaxeAZvz-12" vertex="1">
                    <mxGeometry x="160" width="80" height="70" as="geometry">
                        <mxRectangle width="80" height="70" as="alternateBounds"/>
                    </mxGeometry>
                </mxCell>
                <mxCell id="rmeA39a_A7FZcaxeAZvz-16" value="" style="shape=tableRow;horizontal=0;startSize=0;swimlaneHead=0;swimlaneBody=0;top=0;left=0;bottom=0;right=0;collapsible=0;dropTarget=0;fillColor=none;points=[[0,0.5],[1,0.5]];portConstraint=eastwest;labelBorderColor=none;fontSize=18;" parent="rmeA39a_A7FZcaxeAZvz-7" vertex="1">
                    <mxGeometry y="170" width="240" height="70" as="geometry"/>
                </mxCell>
                <mxCell id="rmeA39a_A7FZcaxeAZvz-17" value="2" style="shape=partialRectangle;html=1;whiteSpace=wrap;connectable=0;fillColor=none;top=0;left=0;bottom=0;right=0;overflow=hidden;labelBorderColor=none;fontSize=18;" parent="rmeA39a_A7FZcaxeAZvz-16" vertex="1">
                    <mxGeometry width="80" height="70" as="geometry">
                        <mxRectangle width="80" height="70" as="alternateBounds"/>
                    </mxGeometry>
                </mxCell>
                <mxCell id="rmeA39a_A7FZcaxeAZvz-18" value="months" style="shape=partialRectangle;html=1;whiteSpace=wrap;connectable=0;fillColor=none;top=0;left=0;bottom=0;right=0;overflow=hidden;labelBorderColor=none;fontSize=18;" parent="rmeA39a_A7FZcaxeAZvz-16" vertex="1">
                    <mxGeometry x="80" width="80" height="70" as="geometry">
                        <mxRectangle width="80" height="70" as="alternateBounds"/>
                    </mxGeometry>
                </mxCell>
                <mxCell id="rmeA39a_A7FZcaxeAZvz-19" value="12" style="shape=partialRectangle;html=1;whiteSpace=wrap;connectable=0;fillColor=none;top=0;left=0;bottom=0;right=0;overflow=hidden;labelBorderColor=none;fontSize=18;" parent="rmeA39a_A7FZcaxeAZvz-16" vertex="1">
                    <mxGeometry x="160" width="80" height="70" as="geometry">
                        <mxRectangle width="80" height="70" as="alternateBounds"/>
                    </mxGeometry>
                </mxCell>
                <mxCell id="ZozACURnkXN204Pw1X0l-0" value="pyodbc &#10;byÂ mkleehammer" style="shape=module;align=left;spacingLeft=20;align=center;verticalAlign=top;rounded=0;" parent="jIJPH-z44TZfYb5a6Cpk-1" vertex="1">
                    <mxGeometry x="-210" y="181" width="150" height="50" as="geometry"/>
                </mxCell>
                <mxCell id="ZozACURnkXN204Pw1X0l-1" value="odbc driver&lt;br&gt;Microsoft Excel" style="html=1;rounded=0;" parent="jIJPH-z44TZfYb5a6Cpk-1" vertex="1">
                    <mxGeometry x="-210" y="80" width="110" height="50" as="geometry"/>
                </mxCell>
                <mxCell id="ZozACURnkXN204Pw1X0l-2" value="Connection&#10;(singletone)" style="swimlane;fontStyle=1;align=center;verticalAlign=top;childLayout=stackLayout;horizontal=1;startSize=50;horizontalStack=0;resizeParent=1;resizeParentMax=0;resizeLast=0;collapsible=1;marginBottom=0;rounded=0;" parent="jIJPH-z44TZfYb5a6Cpk-1" vertex="1">
                    <mxGeometry x="90" y="110" width="160" height="120" as="geometry"/>
                </mxCell>
                <mxCell id="ZozACURnkXN204Pw1X0l-3" value="- connection: Connection" style="text;strokeColor=none;fillColor=none;align=left;verticalAlign=top;spacingLeft=4;spacingRight=4;overflow=hidden;rotatable=0;points=[[0,0.5],[1,0.5]];portConstraint=eastwest;rounded=0;" parent="ZozACURnkXN204Pw1X0l-2" vertex="1">
                    <mxGeometry y="50" width="160" height="26" as="geometry"/>
                </mxCell>
                <mxCell id="ZozACURnkXN204Pw1X0l-4" value="" style="line;strokeWidth=1;fillColor=none;align=left;verticalAlign=middle;spacingTop=-1;spacingLeft=3;spacingRight=3;rotatable=0;labelPosition=right;points=[];portConstraint=eastwest;strokeColor=inherit;rounded=0;" parent="ZozACURnkXN204Pw1X0l-2" vertex="1">
                    <mxGeometry y="76" width="160" height="8" as="geometry"/>
                </mxCell>
                <mxCell id="ZozACURnkXN204Pw1X0l-5" value="+ Connection(): connection" style="text;strokeColor=none;fillColor=none;align=left;verticalAlign=top;spacingLeft=4;spacingRight=4;overflow=hidden;rotatable=0;points=[[0,0.5],[1,0.5]];portConstraint=eastwest;rounded=0;" parent="ZozACURnkXN204Pw1X0l-2" vertex="1">
                    <mxGeometry y="84" width="160" height="36" as="geometry"/>
                </mxCell>
                <mxCell id="ZozACURnkXN204Pw1X0l-6" value="Controller" style="swimlane;fontStyle=1;align=center;verticalAlign=top;childLayout=stackLayout;horizontal=1;startSize=30;horizontalStack=0;resizeParent=1;resizeParentMax=0;resizeLast=0;collapsible=1;marginBottom=0;rounded=0;" parent="jIJPH-z44TZfYb5a6Cpk-1" vertex="1">
                    <mxGeometry x="70" y="310" width="420" height="160" as="geometry"/>
                </mxCell>
                <mxCell id="ZozACURnkXN204Pw1X0l-7" value="+ db: Connection" style="text;strokeColor=none;fillColor=none;align=left;verticalAlign=top;spacingLeft=4;spacingRight=4;overflow=hidden;rotatable=0;points=[[0,0.5],[1,0.5]];portConstraint=eastwest;rounded=0;" parent="ZozACURnkXN204Pw1X0l-6" vertex="1">
                    <mxGeometry y="30" width="420" height="60" as="geometry"/>
                </mxCell>
                <mxCell id="ZozACURnkXN204Pw1X0l-8" value="" style="line;strokeWidth=1;fillColor=none;align=left;verticalAlign=middle;spacingTop=-1;spacingLeft=3;spacingRight=3;rotatable=0;labelPosition=right;points=[];portConstraint=eastwest;strokeColor=inherit;rounded=0;" parent="ZozACURnkXN204Pw1X0l-6" vertex="1">
                    <mxGeometry y="90" width="420" height="8" as="geometry"/>
                </mxCell>
                <mxCell id="ZozACURnkXN204Pw1X0l-9" value="- get_cursor(): odbc.Cursor&#10;+ run(request:ExcelRequest): odbc.Cursor&#10;+ run_with_params(request:ExcelRequest, (params) = None): odbc.Cursor" style="text;strokeColor=none;fillColor=none;align=left;verticalAlign=top;spacingLeft=4;spacingRight=4;overflow=hidden;rotatable=0;points=[[0,0.5],[1,0.5]];portConstraint=eastwest;rounded=0;" parent="ZozACURnkXN204Pw1X0l-6" vertex="1">
                    <mxGeometry y="98" width="420" height="62" as="geometry"/>
                </mxCell>
                <mxCell id="tmnh8rA0YuHe_R3HbrMW-0" value="" style="endArrow=diamondThin;endFill=1;endSize=24;html=1;entryX=0.5;entryY=0;entryDx=0;entryDy=0;" parent="jIJPH-z44TZfYb5a6Cpk-1" source="ZozACURnkXN204Pw1X0l-5" target="ZozACURnkXN204Pw1X0l-6" edge="1">
                    <mxGeometry width="160" relative="1" as="geometry">
                        <mxPoint x="200" y="360" as="sourcePoint"/>
                        <mxPoint x="320" y="480" as="targetPoint"/>
                    </mxGeometry>
                </mxCell>
                <mxCell id="tmnh8rA0YuHe_R3HbrMW-1" value="Use" style="endArrow=open;endSize=12;dashed=1;html=1;entryX=0.997;entryY=0.643;entryDx=0;entryDy=0;entryPerimeter=0;" parent="jIJPH-z44TZfYb5a6Cpk-1" target="ZozACURnkXN204Pw1X0l-0" edge="1">
                    <mxGeometry width="160" relative="1" as="geometry">
                        <mxPoint x="90" y="206" as="sourcePoint"/>
                        <mxPoint x="430" y="270" as="targetPoint"/>
                    </mxGeometry>
                </mxCell>
                <mxCell id="tmnh8rA0YuHe_R3HbrMW-2" value="Use" style="endArrow=open;endSize=12;dashed=1;html=1;exitX=0.5;exitY=0;exitDx=0;exitDy=0;entryX=0.5;entryY=1;entryDx=0;entryDy=0;" parent="jIJPH-z44TZfYb5a6Cpk-1" source="ZozACURnkXN204Pw1X0l-0" target="ZozACURnkXN204Pw1X0l-1" edge="1">
                    <mxGeometry width="160" relative="1" as="geometry">
                        <mxPoint x="260" y="222" as="sourcePoint"/>
                        <mxPoint x="330" y="220" as="targetPoint"/>
                    </mxGeometry>
                </mxCell>
                <mxCell id="tmnh8rA0YuHe_R3HbrMW-7" value="Agregator" style="swimlane;fontStyle=1;align=center;verticalAlign=top;childLayout=stackLayout;horizontal=1;startSize=26;horizontalStack=0;resizeParent=1;resizeParentMax=0;resizeLast=0;collapsible=1;marginBottom=0;" parent="jIJPH-z44TZfYb5a6Cpk-1" vertex="1">
                    <mxGeometry x="1390" y="231" width="160" height="134" as="geometry"/>
                </mxCell>
                <mxCell id="tmnh8rA0YuHe_R3HbrMW-9" value="" style="line;strokeWidth=1;fillColor=none;align=left;verticalAlign=middle;spacingTop=-1;spacingLeft=3;spacingRight=3;rotatable=0;labelPosition=right;points=[];portConstraint=eastwest;strokeColor=inherit;" parent="tmnh8rA0YuHe_R3HbrMW-7" vertex="1">
                    <mxGeometry y="26" width="160" height="8" as="geometry"/>
                </mxCell>
                <mxCell id="tmnh8rA0YuHe_R3HbrMW-10" value="- get_parentheses(): str&#10;+ count(): str&#10;+ sum(): str&#10;+ avg(): str&#10;+ min(): str&#10;+ max(): str&#10;" style="text;strokeColor=none;fillColor=none;align=left;verticalAlign=top;spacingLeft=4;spacingRight=4;overflow=hidden;rotatable=0;points=[[0,0.5],[1,0.5]];portConstraint=eastwest;" parent="tmnh8rA0YuHe_R3HbrMW-7" vertex="1">
                    <mxGeometry y="34" width="160" height="100" as="geometry"/>
                </mxCell>
                <mxCell id="tmnh8rA0YuHe_R3HbrMW-11" value="Extends" style="endArrow=block;endSize=16;endFill=0;html=1;entryX=0.431;entryY=1.038;entryDx=0;entryDy=0;exitX=0.5;exitY=0;exitDx=0;exitDy=0;entryPerimeter=0;" parent="jIJPH-z44TZfYb5a6Cpk-1" source="tmnh8rA0YuHe_R3HbrMW-7" target="tmnh8rA0YuHe_R3HbrMW-24" edge="1">
                    <mxGeometry width="160" relative="1" as="geometry">
                        <mxPoint x="1260" y="331" as="sourcePoint"/>
                        <mxPoint x="1470" y="160" as="targetPoint"/>
                    </mxGeometry>
                </mxCell>
                <mxCell id="tmnh8rA0YuHe_R3HbrMW-12" value="Formatter" style="swimlane;fontStyle=1;align=center;verticalAlign=top;childLayout=stackLayout;horizontal=1;startSize=26;horizontalStack=0;resizeParent=1;resizeParentMax=0;resizeLast=0;collapsible=1;marginBottom=0;" parent="jIJPH-z44TZfYb5a6Cpk-1" vertex="1">
                    <mxGeometry x="1100" y="111" width="190" height="100" as="geometry"/>
                </mxCell>
                <mxCell id="tmnh8rA0YuHe_R3HbrMW-14" value="" style="line;strokeWidth=1;fillColor=none;align=left;verticalAlign=middle;spacingTop=-1;spacingLeft=3;spacingRight=3;rotatable=0;labelPosition=right;points=[];portConstraint=eastwest;strokeColor=inherit;" parent="tmnh8rA0YuHe_R3HbrMW-12" vertex="1">
                    <mxGeometry y="26" width="190" height="8" as="geometry"/>
                </mxCell>
                <mxCell id="tmnh8rA0YuHe_R3HbrMW-15" value="+ round_to_int(): str&#10;+ round_to_2f(): str&#10;+ round_to_f(precision:int): str" style="text;strokeColor=none;fillColor=none;align=left;verticalAlign=top;spacingLeft=4;spacingRight=4;overflow=hidden;rotatable=0;points=[[0,0.5],[1,0.5]];portConstraint=eastwest;" parent="tmnh8rA0YuHe_R3HbrMW-12" vertex="1">
                    <mxGeometry y="34" width="190" height="66" as="geometry"/>
                </mxCell>
                <mxCell id="tmnh8rA0YuHe_R3HbrMW-16" value="Extends" style="endArrow=block;endSize=16;endFill=0;html=1;exitX=1;exitY=0.25;exitDx=0;exitDy=0;entryX=0;entryY=0.5;entryDx=0;entryDy=0;" parent="jIJPH-z44TZfYb5a6Cpk-1" source="tmnh8rA0YuHe_R3HbrMW-12" target="tmnh8rA0YuHe_R3HbrMW-22" edge="1">
                    <mxGeometry width="160" relative="1" as="geometry">
                        <mxPoint x="1260" y="331" as="sourcePoint"/>
                        <mxPoint x="1390" y="98" as="targetPoint"/>
                    </mxGeometry>
                </mxCell>
                <mxCell id="tmnh8rA0YuHe_R3HbrMW-17" value="Selector" style="swimlane;fontStyle=1;align=center;verticalAlign=top;childLayout=stackLayout;horizontal=1;startSize=26;horizontalStack=0;resizeParent=1;resizeParentMax=0;resizeLast=0;collapsible=1;marginBottom=0;" parent="jIJPH-z44TZfYb5a6Cpk-1" vertex="1">
                    <mxGeometry x="1200" y="265" width="160" height="100" as="geometry"/>
                </mxCell>
                <mxCell id="tmnh8rA0YuHe_R3HbrMW-19" value="" style="line;strokeWidth=1;fillColor=none;align=left;verticalAlign=middle;spacingTop=-1;spacingLeft=3;spacingRight=3;rotatable=0;labelPosition=right;points=[];portConstraint=eastwest;strokeColor=inherit;" parent="tmnh8rA0YuHe_R3HbrMW-17" vertex="1">
                    <mxGeometry y="26" width="160" height="8" as="geometry"/>
                </mxCell>
                <mxCell id="tmnh8rA0YuHe_R3HbrMW-20" value="+ isNull(): str&#10;+ isNotNull(): str&#10;+ pugged(): str" style="text;strokeColor=none;fillColor=none;align=left;verticalAlign=top;spacingLeft=4;spacingRight=4;overflow=hidden;rotatable=0;points=[[0,0.5],[1,0.5]];portConstraint=eastwest;" parent="tmnh8rA0YuHe_R3HbrMW-17" vertex="1">
                    <mxGeometry y="34" width="160" height="66" as="geometry"/>
                </mxCell>
                <mxCell id="tmnh8rA0YuHe_R3HbrMW-21" value="requestUtil" style="swimlane;fontStyle=1;align=center;verticalAlign=top;childLayout=stackLayout;horizontal=1;startSize=26;horizontalStack=0;resizeParent=1;resizeParentMax=0;resizeLast=0;collapsible=1;marginBottom=0;" parent="jIJPH-z44TZfYb5a6Cpk-1" vertex="1">
                    <mxGeometry x="1370" y="60" width="180" height="86" as="geometry"/>
                </mxCell>
                <mxCell id="tmnh8rA0YuHe_R3HbrMW-22" value="- column: str" style="text;strokeColor=none;fillColor=none;align=left;verticalAlign=top;spacingLeft=4;spacingRight=4;overflow=hidden;rotatable=0;points=[[0,0.5],[1,0.5]];portConstraint=eastwest;" parent="tmnh8rA0YuHe_R3HbrMW-21" vertex="1">
                    <mxGeometry y="26" width="180" height="26" as="geometry"/>
                </mxCell>
                <mxCell id="tmnh8rA0YuHe_R3HbrMW-23" value="" style="line;strokeWidth=1;fillColor=none;align=left;verticalAlign=middle;spacingTop=-1;spacingLeft=3;spacingRight=3;rotatable=0;labelPosition=right;points=[];portConstraint=eastwest;strokeColor=inherit;" parent="tmnh8rA0YuHe_R3HbrMW-21" vertex="1">
                    <mxGeometry y="52" width="180" height="8" as="geometry"/>
                </mxCell>
                <mxCell id="tmnh8rA0YuHe_R3HbrMW-24" value="+ requestUtil(column:str): void" style="text;strokeColor=none;fillColor=none;align=left;verticalAlign=top;spacingLeft=4;spacingRight=4;overflow=hidden;rotatable=0;points=[[0,0.5],[1,0.5]];portConstraint=eastwest;" parent="tmnh8rA0YuHe_R3HbrMW-21" vertex="1">
                    <mxGeometry y="60" width="180" height="26" as="geometry"/>
                </mxCell>
                <mxCell id="tmnh8rA0YuHe_R3HbrMW-25" value="Extends" style="endArrow=block;endSize=16;endFill=0;html=1;entryX=0.004;entryY=1.162;entryDx=0;entryDy=0;entryPerimeter=0;exitX=0.5;exitY=0;exitDx=0;exitDy=0;" parent="jIJPH-z44TZfYb5a6Cpk-1" source="tmnh8rA0YuHe_R3HbrMW-17" target="tmnh8rA0YuHe_R3HbrMW-24" edge="1">
                    <mxGeometry width="160" relative="1" as="geometry">
                        <mxPoint x="1260" y="331" as="sourcePoint"/>
                        <mxPoint x="1420" y="331" as="targetPoint"/>
                    </mxGeometry>
                </mxCell>
                <mxCell id="tmnh8rA0YuHe_R3HbrMW-26" value="ExcelRequest" style="swimlane;fontStyle=1;align=center;verticalAlign=top;childLayout=stackLayout;horizontal=1;startSize=26;horizontalStack=0;resizeParent=1;resizeParentMax=0;resizeLast=0;collapsible=1;marginBottom=0;" parent="jIJPH-z44TZfYb5a6Cpk-1" vertex="1">
                    <mxGeometry x="770.96" y="93.5" width="290" height="130" as="geometry"/>
                </mxCell>
                <mxCell id="tmnh8rA0YuHe_R3HbrMW-27" value="- command:str&#10;+ columns: ColumnContainer&#10;+ sheet: ExcelSheet" style="text;strokeColor=none;fillColor=none;align=left;verticalAlign=top;spacingLeft=4;spacingRight=4;overflow=hidden;rotatable=0;points=[[0,0.5],[1,0.5]];portConstraint=eastwest;" parent="tmnh8rA0YuHe_R3HbrMW-26" vertex="1">
                    <mxGeometry y="26" width="290" height="54" as="geometry"/>
                </mxCell>
                <mxCell id="tmnh8rA0YuHe_R3HbrMW-28" value="" style="line;strokeWidth=1;fillColor=none;align=left;verticalAlign=middle;spacingTop=-1;spacingLeft=3;spacingRight=3;rotatable=0;labelPosition=right;points=[];portConstraint=eastwest;strokeColor=inherit;" parent="tmnh8rA0YuHe_R3HbrMW-26" vertex="1">
                    <mxGeometry y="80" width="290" height="8" as="geometry"/>
                </mxCell>
                <mxCell id="tmnh8rA0YuHe_R3HbrMW-29" value="+ ExcelRequest(sheet, columns): void&#10;+ set_columns(columns:tuple[ExcelColumn]): void" style="text;strokeColor=none;fillColor=none;align=left;verticalAlign=top;spacingLeft=4;spacingRight=4;overflow=hidden;rotatable=0;points=[[0,0.5],[1,0.5]];portConstraint=eastwest;" parent="tmnh8rA0YuHe_R3HbrMW-26" vertex="1">
                    <mxGeometry y="88" width="290" height="42" as="geometry"/>
                </mxCell>
                <mxCell id="tmnh8rA0YuHe_R3HbrMW-30" value="SelectRequest" style="swimlane;fontStyle=1;align=center;verticalAlign=top;childLayout=stackLayout;horizontal=1;startSize=26;horizontalStack=0;resizeParent=1;resizeParentMax=0;resizeLast=0;collapsible=1;marginBottom=0;" parent="jIJPH-z44TZfYb5a6Cpk-1" vertex="1">
                    <mxGeometry x="630.96" y="256.5" width="160" height="60" as="geometry"/>
                </mxCell>
                <mxCell id="tmnh8rA0YuHe_R3HbrMW-32" value="" style="line;strokeWidth=1;fillColor=none;align=left;verticalAlign=middle;spacingTop=-1;spacingLeft=3;spacingRight=3;rotatable=0;labelPosition=right;points=[];portConstraint=eastwest;strokeColor=inherit;" parent="tmnh8rA0YuHe_R3HbrMW-30" vertex="1">
                    <mxGeometry y="26" width="160" height="8" as="geometry"/>
                </mxCell>
                <mxCell id="tmnh8rA0YuHe_R3HbrMW-33" value="+ __str__(): str" style="text;strokeColor=none;fillColor=none;align=left;verticalAlign=top;spacingLeft=4;spacingRight=4;overflow=hidden;rotatable=0;points=[[0,0.5],[1,0.5]];portConstraint=eastwest;" parent="tmnh8rA0YuHe_R3HbrMW-30" vertex="1">
                    <mxGeometry y="34" width="160" height="26" as="geometry"/>
                </mxCell>
                <mxCell id="tmnh8rA0YuHe_R3HbrMW-34" value="UpdateRequest" style="swimlane;fontStyle=1;align=center;verticalAlign=top;childLayout=stackLayout;horizontal=1;startSize=26;horizontalStack=0;resizeParent=1;resizeParentMax=0;resizeLast=0;collapsible=1;marginBottom=0;" parent="jIJPH-z44TZfYb5a6Cpk-1" vertex="1">
                    <mxGeometry x="870.96" y="276.5" width="160" height="60" as="geometry"/>
                </mxCell>
                <mxCell id="tmnh8rA0YuHe_R3HbrMW-35" value="" style="line;strokeWidth=1;fillColor=none;align=left;verticalAlign=middle;spacingTop=-1;spacingLeft=3;spacingRight=3;rotatable=0;labelPosition=right;points=[];portConstraint=eastwest;strokeColor=inherit;" parent="tmnh8rA0YuHe_R3HbrMW-34" vertex="1">
                    <mxGeometry y="26" width="160" height="8" as="geometry"/>
                </mxCell>
                <mxCell id="tmnh8rA0YuHe_R3HbrMW-36" value="+ __str__(): str" style="text;strokeColor=none;fillColor=none;align=left;verticalAlign=top;spacingLeft=4;spacingRight=4;overflow=hidden;rotatable=0;points=[[0,0.5],[1,0.5]];portConstraint=eastwest;" parent="tmnh8rA0YuHe_R3HbrMW-34" vertex="1">
                    <mxGeometry y="34" width="160" height="26" as="geometry"/>
                </mxCell>
                <mxCell id="tmnh8rA0YuHe_R3HbrMW-37" value="InsertRequest" style="swimlane;fontStyle=1;align=center;verticalAlign=top;childLayout=stackLayout;horizontal=1;startSize=26;horizontalStack=0;resizeParent=1;resizeParentMax=0;resizeLast=0;collapsible=1;marginBottom=0;" parent="jIJPH-z44TZfYb5a6Cpk-1" vertex="1">
                    <mxGeometry x="680.96" y="341.5" width="210" height="80" as="geometry"/>
                </mxCell>
                <mxCell id="tmnh8rA0YuHe_R3HbrMW-38" value="" style="line;strokeWidth=1;fillColor=none;align=left;verticalAlign=middle;spacingTop=-1;spacingLeft=3;spacingRight=3;rotatable=0;labelPosition=right;points=[];portConstraint=eastwest;strokeColor=inherit;" parent="tmnh8rA0YuHe_R3HbrMW-37" vertex="1">
                    <mxGeometry y="26" width="210" height="8" as="geometry"/>
                </mxCell>
                <mxCell id="tmnh8rA0YuHe_R3HbrMW-39" value="+ values_to_insert(values: tuple):Â  str&#10;+ __str__(): str" style="text;strokeColor=none;fillColor=none;align=left;verticalAlign=top;spacingLeft=4;spacingRight=4;overflow=hidden;rotatable=0;points=[[0,0.5],[1,0.5]];portConstraint=eastwest;" parent="tmnh8rA0YuHe_R3HbrMW-37" vertex="1">
                    <mxGeometry y="34" width="210" height="46" as="geometry"/>
                </mxCell>
                <mxCell id="tmnh8rA0YuHe_R3HbrMW-40" value="DeleteRequest" style="swimlane;fontStyle=1;align=center;verticalAlign=top;childLayout=stackLayout;horizontal=1;startSize=26;horizontalStack=0;resizeParent=1;resizeParentMax=0;resizeLast=0;collapsible=1;marginBottom=0;" parent="jIJPH-z44TZfYb5a6Cpk-1" vertex="1">
                    <mxGeometry x="950.96" y="351.5" width="160" height="60" as="geometry"/>
                </mxCell>
                <mxCell id="tmnh8rA0YuHe_R3HbrMW-41" value="" style="line;strokeWidth=1;fillColor=none;align=left;verticalAlign=middle;spacingTop=-1;spacingLeft=3;spacingRight=3;rotatable=0;labelPosition=right;points=[];portConstraint=eastwest;strokeColor=inherit;" parent="tmnh8rA0YuHe_R3HbrMW-40" vertex="1">
                    <mxGeometry y="26" width="160" height="8" as="geometry"/>
                </mxCell>
                <mxCell id="tmnh8rA0YuHe_R3HbrMW-42" value="+ __str__(): str" style="text;strokeColor=none;fillColor=none;align=left;verticalAlign=top;spacingLeft=4;spacingRight=4;overflow=hidden;rotatable=0;points=[[0,0.5],[1,0.5]];portConstraint=eastwest;" parent="tmnh8rA0YuHe_R3HbrMW-40" vertex="1">
                    <mxGeometry y="34" width="160" height="26" as="geometry"/>
                </mxCell>
                <mxCell id="tmnh8rA0YuHe_R3HbrMW-43" value="Extends" style="endArrow=block;endSize=16;endFill=0;html=1;exitX=0.5;exitY=0;exitDx=0;exitDy=0;entryX=0;entryY=0.5;entryDx=0;entryDy=0;" parent="jIJPH-z44TZfYb5a6Cpk-1" source="tmnh8rA0YuHe_R3HbrMW-30" target="tmnh8rA0YuHe_R3HbrMW-29" edge="1">
                    <mxGeometry width="160" relative="1" as="geometry">
                        <mxPoint x="1030.96" y="316.5" as="sourcePoint"/>
                        <mxPoint x="1190.96" y="316.5" as="targetPoint"/>
                    </mxGeometry>
                </mxCell>
                <mxCell id="tmnh8rA0YuHe_R3HbrMW-44" value="Extends" style="endArrow=block;endSize=16;endFill=0;html=1;exitX=0.5;exitY=0;exitDx=0;exitDy=0;entryX=0.406;entryY=0.999;entryDx=0;entryDy=0;entryPerimeter=0;" parent="jIJPH-z44TZfYb5a6Cpk-1" source="tmnh8rA0YuHe_R3HbrMW-34" target="tmnh8rA0YuHe_R3HbrMW-29" edge="1">
                    <mxGeometry width="160" relative="1" as="geometry">
                        <mxPoint x="750.96" y="266.5" as="sourcePoint"/>
                        <mxPoint x="780.96" y="212.5" as="targetPoint"/>
                    </mxGeometry>
                </mxCell>
                <mxCell id="tmnh8rA0YuHe_R3HbrMW-45" value="Extends" style="endArrow=block;endSize=16;endFill=0;html=1;exitX=0.75;exitY=0;exitDx=0;exitDy=0;entryX=0.248;entryY=1.027;entryDx=0;entryDy=0;entryPerimeter=0;" parent="jIJPH-z44TZfYb5a6Cpk-1" source="tmnh8rA0YuHe_R3HbrMW-37" target="tmnh8rA0YuHe_R3HbrMW-29" edge="1">
                    <mxGeometry width="160" relative="1" as="geometry">
                        <mxPoint x="950.96" y="266.5" as="sourcePoint"/>
                        <mxPoint x="898.6999999999998" y="233.45799999999963" as="targetPoint"/>
                    </mxGeometry>
                </mxCell>
                <mxCell id="tmnh8rA0YuHe_R3HbrMW-46" value="Extends" style="endArrow=block;endSize=16;endFill=0;html=1;entryX=0.978;entryY=1.083;entryDx=0;entryDy=0;entryPerimeter=0;exitX=0.75;exitY=0;exitDx=0;exitDy=0;" parent="jIJPH-z44TZfYb5a6Cpk-1" source="tmnh8rA0YuHe_R3HbrMW-40" target="tmnh8rA0YuHe_R3HbrMW-29" edge="1">
                    <mxGeometry width="160" relative="1" as="geometry">
                        <mxPoint x="1030.96" y="316.5" as="sourcePoint"/>
                        <mxPoint x="1190.96" y="316.5" as="targetPoint"/>
                    </mxGeometry>
                </mxCell>
                <mxCell id="tmnh8rA0YuHe_R3HbrMW-47" value="bunch of request mixins" style="html=1;" parent="jIJPH-z44TZfYb5a6Cpk-1" vertex="1">
                    <mxGeometry x="830.96" y="486.5" width="190" height="50" as="geometry"/>
                </mxCell>
                <mxCell id="tmnh8rA0YuHe_R3HbrMW-48" value="" style="endArrow=block;dashed=1;endFill=0;endSize=12;html=1;entryX=0.5;entryY=0;entryDx=0;entryDy=0;" parent="jIJPH-z44TZfYb5a6Cpk-1" source="tmnh8rA0YuHe_R3HbrMW-36" target="tmnh8rA0YuHe_R3HbrMW-47" edge="1">
                    <mxGeometry width="160" relative="1" as="geometry">
                        <mxPoint x="910.96" y="526.5" as="sourcePoint"/>
                        <mxPoint x="1070.96" y="526.5" as="targetPoint"/>
                    </mxGeometry>
                </mxCell>
                <mxCell id="tmnh8rA0YuHe_R3HbrMW-49" value="" style="endArrow=block;dashed=1;endFill=0;endSize=12;html=1;exitX=0.391;exitY=1.143;exitDx=0;exitDy=0;exitPerimeter=0;entryX=0.682;entryY=0.033;entryDx=0;entryDy=0;entryPerimeter=0;" parent="jIJPH-z44TZfYb5a6Cpk-1" source="tmnh8rA0YuHe_R3HbrMW-42" target="tmnh8rA0YuHe_R3HbrMW-47" edge="1">
                    <mxGeometry width="160" relative="1" as="geometry">
                        <mxPoint x="1080.96" y="456.5" as="sourcePoint"/>
                        <mxPoint x="1240.96" y="456.5" as="targetPoint"/>
                    </mxGeometry>
                </mxCell>
                <mxCell id="tmnh8rA0YuHe_R3HbrMW-50" value="" style="endArrow=block;dashed=1;endFill=0;endSize=12;html=1;exitX=0.564;exitY=1.093;exitDx=0;exitDy=0;exitPerimeter=0;entryX=0.25;entryY=0;entryDx=0;entryDy=0;" parent="jIJPH-z44TZfYb5a6Cpk-1" source="tmnh8rA0YuHe_R3HbrMW-39" target="tmnh8rA0YuHe_R3HbrMW-47" edge="1">
                    <mxGeometry width="160" relative="1" as="geometry">
                        <mxPoint x="1030.96" y="316.5" as="sourcePoint"/>
                        <mxPoint x="1190.96" y="316.5" as="targetPoint"/>
                    </mxGeometry>
                </mxCell>
                <mxCell id="tmnh8rA0YuHe_R3HbrMW-52" value="" style="endArrow=block;dashed=1;endFill=0;endSize=12;html=1;exitX=0.209;exitY=0.994;exitDx=0;exitDy=0;exitPerimeter=0;entryX=0;entryY=0.25;entryDx=0;entryDy=0;" parent="jIJPH-z44TZfYb5a6Cpk-1" source="tmnh8rA0YuHe_R3HbrMW-33" target="tmnh8rA0YuHe_R3HbrMW-47" edge="1">
                    <mxGeometry width="160" relative="1" as="geometry">
                        <mxPoint x="580.96" y="510.90999999999997" as="sourcePoint"/>
                        <mxPoint x="740.96" y="510.90999999999997" as="targetPoint"/>
                        <Array as="points">
                            <mxPoint x="670.96" y="476.5"/>
                        </Array>
                    </mxGeometry>
                </mxCell>
                <mxCell id="tmnh8rA0YuHe_R3HbrMW-53" value="BasicColumn" style="swimlane;fontStyle=1;align=center;verticalAlign=top;childLayout=stackLayout;horizontal=1;startSize=26;horizontalStack=0;resizeParent=1;resizeParentMax=0;resizeLast=0;collapsible=1;marginBottom=0;" parent="jIJPH-z44TZfYb5a6Cpk-1" vertex="1">
                    <mxGeometry x="1270" y="670" width="210" height="190" as="geometry"/>
                </mxCell>
                <mxCell id="tmnh8rA0YuHe_R3HbrMW-54" value="+ title: str&#10;+ valuetype: typeclass" style="text;strokeColor=none;fillColor=none;align=left;verticalAlign=top;spacingLeft=4;spacingRight=4;overflow=hidden;rotatable=0;points=[[0,0.5],[1,0.5]];portConstraint=eastwest;" parent="tmnh8rA0YuHe_R3HbrMW-53" vertex="1">
                    <mxGeometry y="26" width="210" height="44" as="geometry"/>
                </mxCell>
                <mxCell id="tmnh8rA0YuHe_R3HbrMW-55" value="" style="line;strokeWidth=1;fillColor=none;align=left;verticalAlign=middle;spacingTop=-1;spacingLeft=3;spacingRight=3;rotatable=0;labelPosition=right;points=[];portConstraint=eastwest;strokeColor=inherit;" parent="tmnh8rA0YuHe_R3HbrMW-53" vertex="1">
                    <mxGeometry y="70" width="210" height="8" as="geometry"/>
                </mxCell>
                <mxCell id="tmnh8rA0YuHe_R3HbrMW-56" value="+ BasicColumn(title, typeclass): void&#10;+ get_agregator(): requestUtil&#10;+ get_selector(): requestUtil&#10;+ get_formatter(): requestUtil&#10;+ to_format(value): typeclass&#10;+ to_model_keys(): str" style="text;strokeColor=none;fillColor=none;align=left;verticalAlign=top;spacingLeft=4;spacingRight=4;overflow=hidden;rotatable=0;points=[[0,0.5],[1,0.5]];portConstraint=eastwest;" parent="tmnh8rA0YuHe_R3HbrMW-53" vertex="1">
                    <mxGeometry y="78" width="210" height="112" as="geometry"/>
                </mxCell>
                <mxCell id="tmnh8rA0YuHe_R3HbrMW-57" value="return" style="html=1;verticalAlign=bottom;endArrow=open;dashed=1;endSize=8;exitX=0;exitY=0;exitDx=0;exitDy=0;" parent="jIJPH-z44TZfYb5a6Cpk-1" source="tmnh8rA0YuHe_R3HbrMW-53" target="tmnh8rA0YuHe_R3HbrMW-15" edge="1">
                    <mxGeometry relative="1" as="geometry">
                        <mxPoint x="1120" y="620" as="sourcePoint"/>
                        <mxPoint x="1040" y="620" as="targetPoint"/>
                        <Array as="points">
                            <mxPoint x="1170" y="490"/>
                        </Array>
                    </mxGeometry>
                </mxCell>
                <mxCell id="tmnh8rA0YuHe_R3HbrMW-58" value="return" style="html=1;verticalAlign=bottom;endArrow=open;dashed=1;endSize=8;entryX=0.51;entryY=1.051;entryDx=0;entryDy=0;entryPerimeter=0;exitX=0.25;exitY=0;exitDx=0;exitDy=0;" parent="jIJPH-z44TZfYb5a6Cpk-1" source="tmnh8rA0YuHe_R3HbrMW-53" target="tmnh8rA0YuHe_R3HbrMW-20" edge="1">
                    <mxGeometry relative="1" as="geometry">
                        <mxPoint x="1120" y="610" as="sourcePoint"/>
                        <mxPoint x="1040" y="610" as="targetPoint"/>
                    </mxGeometry>
                </mxCell>
                <mxCell id="tmnh8rA0YuHe_R3HbrMW-59" value="return" style="html=1;verticalAlign=bottom;endArrow=open;dashed=1;endSize=8;entryX=0.523;entryY=1.047;entryDx=0;entryDy=0;entryPerimeter=0;exitX=0.5;exitY=0;exitDx=0;exitDy=0;" parent="jIJPH-z44TZfYb5a6Cpk-1" source="tmnh8rA0YuHe_R3HbrMW-53" target="tmnh8rA0YuHe_R3HbrMW-10" edge="1">
                    <mxGeometry relative="1" as="geometry">
                        <mxPoint x="1120" y="610" as="sourcePoint"/>
                        <mxPoint x="1040" y="610" as="targetPoint"/>
                    </mxGeometry>
                </mxCell>
                <mxCell id="tmnh8rA0YuHe_R3HbrMW-60" value="ExcelColumn" style="swimlane;fontStyle=1;align=center;verticalAlign=top;childLayout=stackLayout;horizontal=1;startSize=26;horizontalStack=0;resizeParent=1;resizeParentMax=0;resizeLast=0;collapsible=1;marginBottom=0;" parent="jIJPH-z44TZfYb5a6Cpk-1" vertex="1">
                    <mxGeometry x="970" y="700" width="230" height="90" as="geometry"/>
                </mxCell>
                <mxCell id="tmnh8rA0YuHe_R3HbrMW-61" value="+ sheet: ExcelSheet" style="text;strokeColor=none;fillColor=none;align=left;verticalAlign=top;spacingLeft=4;spacingRight=4;overflow=hidden;rotatable=0;points=[[0,0.5],[1,0.5]];portConstraint=eastwest;" parent="tmnh8rA0YuHe_R3HbrMW-60" vertex="1">
                    <mxGeometry y="26" width="230" height="26" as="geometry"/>
                </mxCell>
                <mxCell id="tmnh8rA0YuHe_R3HbrMW-62" value="" style="line;strokeWidth=1;fillColor=none;align=left;verticalAlign=middle;spacingTop=-1;spacingLeft=3;spacingRight=3;rotatable=0;labelPosition=right;points=[];portConstraint=eastwest;strokeColor=inherit;" parent="tmnh8rA0YuHe_R3HbrMW-60" vertex="1">
                    <mxGeometry y="52" width="230" height="8" as="geometry"/>
                </mxCell>
                <mxCell id="tmnh8rA0YuHe_R3HbrMW-79" value="&amp;nbsp;+ ExcelColumn(sheet): void" style="text;html=1;align=left;verticalAlign=middle;resizable=0;points=[];autosize=1;strokeColor=none;fillColor=none;" parent="tmnh8rA0YuHe_R3HbrMW-60" vertex="1">
                    <mxGeometry y="60" width="230" height="30" as="geometry"/>
                </mxCell>
                <mxCell id="tmnh8rA0YuHe_R3HbrMW-64" value="Extends" style="endArrow=block;endSize=16;endFill=0;html=1;entryX=0;entryY=0.5;entryDx=0;entryDy=0;exitX=1;exitY=0.25;exitDx=0;exitDy=0;" parent="jIJPH-z44TZfYb5a6Cpk-1" source="tmnh8rA0YuHe_R3HbrMW-60" target="tmnh8rA0YuHe_R3HbrMW-54" edge="1">
                    <mxGeometry width="160" relative="1" as="geometry">
                        <mxPoint x="1000" y="610" as="sourcePoint"/>
                        <mxPoint x="1160" y="610" as="targetPoint"/>
                    </mxGeometry>
                </mxCell>
                <mxCell id="tmnh8rA0YuHe_R3HbrMW-65" value="IdColumn" style="swimlane;fontStyle=1;align=center;verticalAlign=top;childLayout=stackLayout;horizontal=1;startSize=26;horizontalStack=0;resizeParent=1;resizeParentMax=0;resizeLast=0;collapsible=1;marginBottom=0;" parent="jIJPH-z44TZfYb5a6Cpk-1" vertex="1">
                    <mxGeometry x="1005" y="850" width="160" height="34" as="geometry"/>
                </mxCell>
                <mxCell id="tmnh8rA0YuHe_R3HbrMW-67" value="" style="line;strokeWidth=1;fillColor=none;align=left;verticalAlign=middle;spacingTop=-1;spacingLeft=3;spacingRight=3;rotatable=0;labelPosition=right;points=[];portConstraint=eastwest;strokeColor=inherit;" parent="tmnh8rA0YuHe_R3HbrMW-65" vertex="1">
                    <mxGeometry y="26" width="160" height="8" as="geometry"/>
                </mxCell>
                <mxCell id="tmnh8rA0YuHe_R3HbrMW-69" value="Extends" style="endArrow=block;endSize=16;endFill=0;html=1;entryX=0.5;entryY=1;entryDx=0;entryDy=0;exitX=0.5;exitY=0;exitDx=0;exitDy=0;" parent="jIJPH-z44TZfYb5a6Cpk-1" source="tmnh8rA0YuHe_R3HbrMW-65" target="tmnh8rA0YuHe_R3HbrMW-60" edge="1">
                    <mxGeometry width="160" relative="1" as="geometry">
                        <mxPoint x="1000" y="610" as="sourcePoint"/>
                        <mxPoint x="1160" y="610" as="targetPoint"/>
                    </mxGeometry>
                </mxCell>
                <mxCell id="tmnh8rA0YuHe_R3HbrMW-70" value="ColumnContainer" style="swimlane;fontStyle=1;align=center;verticalAlign=top;childLayout=stackLayout;horizontal=1;startSize=26;horizontalStack=0;resizeParent=1;resizeParentMax=0;resizeLast=0;collapsible=1;marginBottom=0;" parent="jIJPH-z44TZfYb5a6Cpk-1" vertex="1">
                    <mxGeometry x="1200" y="920" width="240" height="190" as="geometry"/>
                </mxCell>
                <mxCell id="tmnh8rA0YuHe_R3HbrMW-71" value="+ columns: list(BasicColumn)" style="text;strokeColor=none;fillColor=none;align=left;verticalAlign=top;spacingLeft=4;spacingRight=4;overflow=hidden;rotatable=0;points=[[0,0.5],[1,0.5]];portConstraint=eastwest;" parent="tmnh8rA0YuHe_R3HbrMW-70" vertex="1">
                    <mxGeometry y="26" width="240" height="26" as="geometry"/>
                </mxCell>
                <mxCell id="tmnh8rA0YuHe_R3HbrMW-72" value="" style="line;strokeWidth=1;fillColor=none;align=left;verticalAlign=middle;spacingTop=-1;spacingLeft=3;spacingRight=3;rotatable=0;labelPosition=right;points=[];portConstraint=eastwest;strokeColor=inherit;" parent="tmnh8rA0YuHe_R3HbrMW-70" vertex="1">
                    <mxGeometry y="52" width="240" height="8" as="geometry"/>
                </mxCell>
                <mxCell id="tmnh8rA0YuHe_R3HbrMW-73" value="+ ColumnContainer(columns): void&#10;+ all(): str&#10;+ get_model_keys(): tuple&#10;+ get_pug(): str&#10;+ get_columns_in_parentheses(): str&#10;+ __str__(): str&#10;+ __len__(): int&#10;+ __iter__(): BasicColumn" style="text;strokeColor=none;fillColor=none;align=left;verticalAlign=top;spacingLeft=4;spacingRight=4;overflow=hidden;rotatable=0;points=[[0,0.5],[1,0.5]];portConstraint=eastwest;" parent="tmnh8rA0YuHe_R3HbrMW-70" vertex="1">
                    <mxGeometry y="60" width="240" height="130" as="geometry"/>
                </mxCell>
                <mxCell id="tmnh8rA0YuHe_R3HbrMW-75" value="ExcelColumnContainer" style="swimlane;fontStyle=1;align=center;verticalAlign=top;childLayout=stackLayout;horizontal=1;startSize=26;horizontalStack=0;resizeParent=1;resizeParentMax=0;resizeLast=0;collapsible=1;marginBottom=0;" parent="jIJPH-z44TZfYb5a6Cpk-1" vertex="1">
                    <mxGeometry x="816.92" y="940" width="294.04" height="130" as="geometry"/>
                </mxCell>
                <mxCell id="tmnh8rA0YuHe_R3HbrMW-76" value="- id_column: IdColumn" style="text;strokeColor=none;fillColor=none;align=left;verticalAlign=top;spacingLeft=4;spacingRight=4;overflow=hidden;rotatable=0;points=[[0,0.5],[1,0.5]];portConstraint=eastwest;" parent="tmnh8rA0YuHe_R3HbrMW-75" vertex="1">
                    <mxGeometry y="26" width="294.04" height="26" as="geometry"/>
                </mxCell>
                <mxCell id="tmnh8rA0YuHe_R3HbrMW-77" value="" style="line;strokeWidth=1;fillColor=none;align=left;verticalAlign=middle;spacingTop=-1;spacingLeft=3;spacingRight=3;rotatable=0;labelPosition=right;points=[];portConstraint=eastwest;strokeColor=inherit;" parent="tmnh8rA0YuHe_R3HbrMW-75" vertex="1">
                    <mxGeometry y="52" width="294.04" height="8" as="geometry"/>
                </mxCell>
                <mxCell id="tmnh8rA0YuHe_R3HbrMW-78" value="+ get_id_column(): IdColumn&#10;- get_excelsheet_value(ExcelSheet): list&#10;- find_excelcolumns(values:BasicColumn): list&#10;" style="text;strokeColor=none;fillColor=none;align=left;verticalAlign=top;spacingLeft=4;spacingRight=4;overflow=hidden;rotatable=0;points=[[0,0.5],[1,0.5]];portConstraint=eastwest;" parent="tmnh8rA0YuHe_R3HbrMW-75" vertex="1">
                    <mxGeometry y="60" width="294.04" height="70" as="geometry"/>
                </mxCell>
                <mxCell id="tmnh8rA0YuHe_R3HbrMW-80" value="Extends" style="endArrow=block;endSize=16;endFill=0;html=1;entryX=0.007;entryY=-0.028;entryDx=0;entryDy=0;entryPerimeter=0;exitX=1;exitY=0.5;exitDx=0;exitDy=0;" parent="jIJPH-z44TZfYb5a6Cpk-1" source="tmnh8rA0YuHe_R3HbrMW-76" target="tmnh8rA0YuHe_R3HbrMW-73" edge="1">
                    <mxGeometry width="160" relative="1" as="geometry">
                        <mxPoint x="1000" y="1010" as="sourcePoint"/>
                        <mxPoint x="1160" y="1010" as="targetPoint"/>
                    </mxGeometry>
                </mxCell>
                <mxCell id="tmnh8rA0YuHe_R3HbrMW-81" value="Commands" style="swimlane;fontStyle=1;align=center;verticalAlign=top;childLayout=stackLayout;horizontal=1;startSize=26;horizontalStack=0;resizeParent=1;resizeParentMax=0;resizeLast=0;collapsible=1;marginBottom=0;" parent="jIJPH-z44TZfYb5a6Cpk-1" vertex="1">
                    <mxGeometry x="580" y="750" width="240" height="120" as="geometry"/>
                </mxCell>
                <mxCell id="tmnh8rA0YuHe_R3HbrMW-83" value="" style="line;strokeWidth=1;fillColor=none;align=left;verticalAlign=middle;spacingTop=-1;spacingLeft=3;spacingRight=3;rotatable=0;labelPosition=right;points=[];portConstraint=eastwest;strokeColor=inherit;" parent="tmnh8rA0YuHe_R3HbrMW-81" vertex="1">
                    <mxGeometry y="26" width="240" height="8" as="geometry"/>
                </mxCell>
                <mxCell id="tmnh8rA0YuHe_R3HbrMW-84" value="+ insert(columns): ExcelRequest&#10;+ delete(columns): ExcelRequest&#10;+ update(columns): ExcelRequest&#10;+ select(columns): ExcelRequest&#10;+ find(columns): ExcelRequest" style="text;strokeColor=none;fillColor=none;align=left;verticalAlign=top;spacingLeft=4;spacingRight=4;overflow=hidden;rotatable=0;points=[[0,0.5],[1,0.5]];portConstraint=eastwest;" parent="tmnh8rA0YuHe_R3HbrMW-81" vertex="1">
                    <mxGeometry y="34" width="240" height="86" as="geometry"/>
                </mxCell>
                <mxCell id="tmnh8rA0YuHe_R3HbrMW-85" value="&lt;p style=&quot;margin:0px;margin-top:4px;text-align:center;&quot;&gt;&lt;i&gt;&amp;lt;&amp;lt;Interface&amp;gt;&amp;gt;&lt;/i&gt;&lt;br&gt;&lt;b&gt;SQL interfaces&lt;/b&gt;&lt;/p&gt;&lt;hr size=&quot;1&quot;&gt;&lt;p style=&quot;margin:0px;margin-left:4px;&quot;&gt;&lt;br&gt;&lt;/p&gt;&lt;hr size=&quot;1&quot;&gt;&lt;p style=&quot;margin:0px;margin-left:4px;&quot;&gt;&lt;br&gt;&lt;/p&gt;" style="verticalAlign=top;align=left;overflow=fill;fontSize=12;fontFamily=Helvetica;html=1;" parent="jIJPH-z44TZfYb5a6Cpk-1" vertex="1">
                    <mxGeometry x="730" y="610" width="190" height="80" as="geometry"/>
                </mxCell>
                <mxCell id="tmnh8rA0YuHe_R3HbrMW-86" value="" style="endArrow=block;dashed=1;endFill=0;endSize=12;html=1;exitX=0.5;exitY=0;exitDx=0;exitDy=0;entryX=0;entryY=1;entryDx=0;entryDy=0;" parent="jIJPH-z44TZfYb5a6Cpk-1" source="tmnh8rA0YuHe_R3HbrMW-81" target="tmnh8rA0YuHe_R3HbrMW-85" edge="1">
                    <mxGeometry width="160" relative="1" as="geometry">
                        <mxPoint x="900" y="950" as="sourcePoint"/>
                        <mxPoint x="680" y="910" as="targetPoint"/>
                        <Array as="points">
                            <mxPoint x="690" y="710"/>
                        </Array>
                    </mxGeometry>
                </mxCell>
                <mxCell id="tmnh8rA0YuHe_R3HbrMW-88" value="BasicSheet" style="swimlane;fontStyle=1;align=center;verticalAlign=top;childLayout=stackLayout;horizontal=1;startSize=26;horizontalStack=0;resizeParent=1;resizeParentMax=0;resizeLast=0;collapsible=1;marginBottom=0;" parent="jIJPH-z44TZfYb5a6Cpk-1" vertex="1">
                    <mxGeometry x="790.96" y="1150" width="219.04" height="110" as="geometry"/>
                </mxCell>
                <mxCell id="tmnh8rA0YuHe_R3HbrMW-89" value="- controller: ExcelController&#10;+ colcontainer: ExcelColumnContainer" style="text;strokeColor=none;fillColor=none;align=left;verticalAlign=top;spacingLeft=4;spacingRight=4;overflow=hidden;rotatable=0;points=[[0,0.5],[1,0.5]];portConstraint=eastwest;" parent="tmnh8rA0YuHe_R3HbrMW-88" vertex="1">
                    <mxGeometry y="26" width="219.04" height="44" as="geometry"/>
                </mxCell>
                <mxCell id="tmnh8rA0YuHe_R3HbrMW-90" value="" style="line;strokeWidth=1;fillColor=none;align=left;verticalAlign=middle;spacingTop=-1;spacingLeft=3;spacingRight=3;rotatable=0;labelPosition=right;points=[];portConstraint=eastwest;strokeColor=inherit;" parent="tmnh8rA0YuHe_R3HbrMW-88" vertex="1">
                    <mxGeometry y="70" width="219.04" height="8" as="geometry"/>
                </mxCell>
                <mxCell id="tmnh8rA0YuHe_R3HbrMW-91" value="+ BasicSheet(controller): void" style="text;strokeColor=none;fillColor=none;align=left;verticalAlign=top;spacingLeft=4;spacingRight=4;overflow=hidden;rotatable=0;points=[[0,0.5],[1,0.5]];portConstraint=eastwest;" parent="tmnh8rA0YuHe_R3HbrMW-88" vertex="1">
                    <mxGeometry y="78" width="219.04" height="32" as="geometry"/>
                </mxCell>
                <mxCell id="tmnh8rA0YuHe_R3HbrMW-92" value="ExcelSheet" style="swimlane;fontStyle=1;align=center;verticalAlign=top;childLayout=stackLayout;horizontal=1;startSize=26;horizontalStack=0;resizeParent=1;resizeParentMax=0;resizeLast=0;collapsible=1;marginBottom=0;" parent="jIJPH-z44TZfYb5a6Cpk-1" vertex="1">
                    <mxGeometry x="490" y="940" width="278.56" height="94" as="geometry"/>
                </mxCell>
                <mxCell id="tmnh8rA0YuHe_R3HbrMW-94" value="" style="line;strokeWidth=1;fillColor=none;align=left;verticalAlign=middle;spacingTop=-1;spacingLeft=3;spacingRight=3;rotatable=0;labelPosition=right;points=[];portConstraint=eastwest;strokeColor=inherit;" parent="tmnh8rA0YuHe_R3HbrMW-92" vertex="1">
                    <mxGeometry y="26" width="278.56" height="8" as="geometry"/>
                </mxCell>
                <mxCell id="tmnh8rA0YuHe_R3HbrMW-95" value="+ records(): int&#10;+ run(ExcelRequest, params:tuple): odbc.Cursor" style="text;strokeColor=none;fillColor=none;align=left;verticalAlign=top;spacingLeft=4;spacingRight=4;overflow=hidden;rotatable=0;points=[[0,0.5],[1,0.5]];portConstraint=eastwest;" parent="tmnh8rA0YuHe_R3HbrMW-92" vertex="1">
                    <mxGeometry y="34" width="278.56" height="60" as="geometry"/>
                </mxCell>
                <mxCell id="tmnh8rA0YuHe_R3HbrMW-99" value="" style="endArrow=block;dashed=1;endFill=0;endSize=12;html=1;entryX=0.074;entryY=1.012;entryDx=0;entryDy=0;entryPerimeter=0;exitX=0.25;exitY=0;exitDx=0;exitDy=0;" parent="jIJPH-z44TZfYb5a6Cpk-1" source="tmnh8rA0YuHe_R3HbrMW-92" target="tmnh8rA0YuHe_R3HbrMW-84" edge="1">
                    <mxGeometry width="160" relative="1" as="geometry">
                        <mxPoint x="900" y="1130" as="sourcePoint"/>
                        <mxPoint x="1060" y="1130" as="targetPoint"/>
                    </mxGeometry>
                </mxCell>
                <mxCell id="tmnh8rA0YuHe_R3HbrMW-100" value="Extends" style="endArrow=block;endSize=16;endFill=0;html=1;exitX=0.474;exitY=1.02;exitDx=0;exitDy=0;exitPerimeter=0;entryX=0;entryY=0;entryDx=0;entryDy=0;" parent="jIJPH-z44TZfYb5a6Cpk-1" source="tmnh8rA0YuHe_R3HbrMW-95" target="tmnh8rA0YuHe_R3HbrMW-88" edge="1">
                    <mxGeometry width="160" relative="1" as="geometry">
                        <mxPoint x="900" y="1130" as="sourcePoint"/>
                        <mxPoint x="1060" y="1130" as="targetPoint"/>
                    </mxGeometry>
                </mxCell>
                <mxCell id="tmnh8rA0YuHe_R3HbrMW-102" value="&lt;p style=&quot;margin:0px;margin-top:4px;text-align:center;&quot;&gt;&lt;i&gt;&amp;lt;&amp;lt;Interface&amp;gt;&amp;gt;&lt;/i&gt;&lt;br&gt;&lt;b&gt;iModel&lt;/b&gt;&lt;/p&gt;&lt;br&gt;&lt;hr size=&quot;1&quot;&gt;&lt;p style=&quot;margin:0px;margin-left:4px;&quot;&gt;+ get_link_to_model(): NIE&lt;/p&gt;&lt;p style=&quot;margin:0px;margin-left:4px;&quot;&gt;&lt;br&gt;&lt;/p&gt;" style="verticalAlign=top;align=left;overflow=fill;fontSize=12;fontFamily=Helvetica;html=1;" parent="jIJPH-z44TZfYb5a6Cpk-1" vertex="1">
                    <mxGeometry x="-200" y="630" width="190" height="90" as="geometry"/>
                </mxCell>
                <mxCell id="tmnh8rA0YuHe_R3HbrMW-103" value="&lt;p style=&quot;margin:0px;margin-top:4px;text-align:center;&quot;&gt;&lt;i&gt;&amp;lt;&amp;lt;Interface&amp;gt;&amp;gt;&lt;/i&gt;&lt;br&gt;&lt;b&gt;iSingleModel&lt;/b&gt;&lt;/p&gt;&lt;br&gt;&lt;hr size=&quot;1&quot;&gt;&lt;p style=&quot;margin:0px;margin-left:4px;&quot;&gt;&lt;span style=&quot;background-color: initial;&quot;&gt;+ find_model_by_id(index:int): NIE&lt;/span&gt;&lt;br&gt;&lt;/p&gt;&lt;p style=&quot;margin:0px;margin-left:4px;&quot;&gt;&lt;span style=&quot;background-color: initial;&quot;&gt;+ find_model_by_expression(columns:tuple, values:tuple): NIE&lt;/span&gt;&lt;/p&gt;&lt;p style=&quot;margin:0px;margin-left:4px;&quot;&gt;&lt;span style=&quot;background-color: initial;&quot;&gt;+ insert_model(model:ExcelModel): NIE&lt;/span&gt;&lt;/p&gt;&lt;p style=&quot;margin:0px;margin-left:4px;&quot;&gt;&lt;span style=&quot;background-color: initial;&quot;&gt;+ update_model(model:ExcelModel): NIE&lt;/span&gt;&lt;/p&gt;&lt;p style=&quot;margin:0px;margin-left:4px;&quot;&gt;&lt;span style=&quot;background-color: initial;&quot;&gt;+ delete_model(model:ExcelModel): NIE&lt;/span&gt;&lt;/p&gt;" style="verticalAlign=top;align=left;overflow=fill;fontSize=12;fontFamily=Helvetica;html=1;" parent="jIJPH-z44TZfYb5a6Cpk-1" vertex="1">
                    <mxGeometry x="-510" y="770" width="360" height="140" as="geometry"/>
                </mxCell>
                <mxCell id="tmnh8rA0YuHe_R3HbrMW-104" value="Extends" style="endArrow=block;endSize=16;endFill=0;html=1;entryX=0;entryY=1;entryDx=0;entryDy=0;exitX=0.5;exitY=0;exitDx=0;exitDy=0;" parent="jIJPH-z44TZfYb5a6Cpk-1" source="tmnh8rA0YuHe_R3HbrMW-103" target="tmnh8rA0YuHe_R3HbrMW-102" edge="1">
                    <mxGeometry width="160" relative="1" as="geometry">
                        <mxPoint x="-180" y="880" as="sourcePoint"/>
                        <mxPoint x="-20" y="880" as="targetPoint"/>
                    </mxGeometry>
                </mxCell>
                <mxCell id="tmnh8rA0YuHe_R3HbrMW-105" value="&lt;p style=&quot;margin:0px;margin-top:4px;text-align:center;&quot;&gt;&lt;i&gt;&amp;lt;&amp;lt;Interface&amp;gt;&amp;gt;&lt;/i&gt;&lt;br&gt;&lt;b&gt;iModelFabric&lt;/b&gt;&lt;/p&gt;&lt;br&gt;&lt;hr size=&quot;1&quot;&gt;&lt;p style=&quot;margin:0px;margin-left:4px;&quot;&gt;&lt;span style=&quot;background-color: initial;&quot;&gt;+ find_models_by_id(index:int): NIE&lt;/span&gt;&lt;br&gt;&lt;/p&gt;&lt;p style=&quot;margin:0px;margin-left:4px;&quot;&gt;&lt;span style=&quot;background-color: initial;&quot;&gt;+ find_models_by_expression(columns:tuple, values:tuple): NIE&lt;/span&gt;&lt;/p&gt;&lt;p style=&quot;margin:0px;margin-left:4px;&quot;&gt;&lt;span style=&quot;background-color: initial;&quot;&gt;+ insert_models(model:ExcelModel): NIE&lt;/span&gt;&lt;/p&gt;&lt;p style=&quot;margin:0px;margin-left:4px;&quot;&gt;&lt;span style=&quot;background-color: initial;&quot;&gt;+ update_models(model:ExcelModel): NIE&lt;/span&gt;&lt;/p&gt;&lt;p style=&quot;margin:0px;margin-left:4px;&quot;&gt;&lt;span style=&quot;background-color: initial;&quot;&gt;+ delete_models(model:ExcelModel): NIE&lt;/span&gt;&lt;/p&gt;" style="verticalAlign=top;align=left;overflow=fill;fontSize=12;fontFamily=Helvetica;html=1;" parent="jIJPH-z44TZfYb5a6Cpk-1" vertex="1">
                    <mxGeometry x="-135" y="770" width="360" height="140" as="geometry"/>
                </mxCell>
                <mxCell id="tmnh8rA0YuHe_R3HbrMW-106" value="Extends" style="endArrow=block;endSize=16;endFill=0;html=1;exitX=0.25;exitY=0;exitDx=0;exitDy=0;entryX=0.75;entryY=1;entryDx=0;entryDy=0;" parent="jIJPH-z44TZfYb5a6Cpk-1" source="tmnh8rA0YuHe_R3HbrMW-105" target="tmnh8rA0YuHe_R3HbrMW-102" edge="1">
                    <mxGeometry width="160" relative="1" as="geometry">
                        <mxPoint x="-180" y="880" as="sourcePoint"/>
                        <mxPoint x="-20" y="880" as="targetPoint"/>
                    </mxGeometry>
                </mxCell>
                <mxCell id="tmnh8rA0YuHe_R3HbrMW-107" value="ModelIdentification" style="swimlane;fontStyle=1;align=center;verticalAlign=top;childLayout=stackLayout;horizontal=1;startSize=26;horizontalStack=0;resizeParent=1;resizeParentMax=0;resizeLast=0;collapsible=1;marginBottom=0;" parent="jIJPH-z44TZfYb5a6Cpk-1" vertex="1">
                    <mxGeometry x="-470" y="960" width="320" height="180" as="geometry"/>
                </mxCell>
                <mxCell id="tmnh8rA0YuHe_R3HbrMW-108" value="+ db_id_column: str&#10;+ idf:int" style="text;strokeColor=none;fillColor=none;align=left;verticalAlign=top;spacingLeft=4;spacingRight=4;overflow=hidden;rotatable=0;points=[[0,0.5],[1,0.5]];portConstraint=eastwest;" parent="tmnh8rA0YuHe_R3HbrMW-107" vertex="1">
                    <mxGeometry y="26" width="320" height="44" as="geometry"/>
                </mxCell>
                <mxCell id="tmnh8rA0YuHe_R3HbrMW-109" value="" style="line;strokeWidth=1;fillColor=none;align=left;verticalAlign=middle;spacingTop=-1;spacingLeft=3;spacingRight=3;rotatable=0;labelPosition=right;points=[];portConstraint=eastwest;strokeColor=inherit;" parent="tmnh8rA0YuHe_R3HbrMW-107" vertex="1">
                    <mxGeometry y="70" width="320" height="8" as="geometry"/>
                </mxCell>
                <mxCell id="tmnh8rA0YuHe_R3HbrMW-110" value="+ ModelIdentification(db_id_column, idf): void&#10;+ get_idf(): idf&#10;+ update_idf(idf): void&#10;+ __str__(): str&#10;+ __int__(): int&#10;+ __eq__(): bool" style="text;strokeColor=none;fillColor=none;align=left;verticalAlign=top;spacingLeft=4;spacingRight=4;overflow=hidden;rotatable=0;points=[[0,0.5],[1,0.5]];portConstraint=eastwest;" parent="tmnh8rA0YuHe_R3HbrMW-107" vertex="1">
                    <mxGeometry y="78" width="320" height="102" as="geometry"/>
                </mxCell>
                <mxCell id="tmnh8rA0YuHe_R3HbrMW-111" value="ExcelModel" style="swimlane;fontStyle=1;align=center;verticalAlign=top;childLayout=stackLayout;horizontal=1;startSize=26;horizontalStack=0;resizeParent=1;resizeParentMax=0;resizeLast=0;collapsible=1;marginBottom=0;" parent="jIJPH-z44TZfYb5a6Cpk-1" vertex="1">
                    <mxGeometry x="-470" y="1204" width="180" height="160" as="geometry"/>
                </mxCell>
                <mxCell id="tmnh8rA0YuHe_R3HbrMW-112" value="- alias: dict&#10;- sheet: iSingleModel" style="text;strokeColor=none;fillColor=none;align=left;verticalAlign=top;spacingLeft=4;spacingRight=4;overflow=hidden;rotatable=0;points=[[0,0.5],[1,0.5]];portConstraint=eastwest;" parent="tmnh8rA0YuHe_R3HbrMW-111" vertex="1">
                    <mxGeometry y="26" width="180" height="34" as="geometry"/>
                </mxCell>
                <mxCell id="tmnh8rA0YuHe_R3HbrMW-113" value="" style="line;strokeWidth=1;fillColor=none;align=left;verticalAlign=middle;spacingTop=-1;spacingLeft=3;spacingRight=3;rotatable=0;labelPosition=right;points=[];portConstraint=eastwest;strokeColor=inherit;" parent="tmnh8rA0YuHe_R3HbrMW-111" vertex="1">
                    <mxGeometry y="60" width="180" height="8" as="geometry"/>
                </mxCell>
                <mxCell id="tmnh8rA0YuHe_R3HbrMW-114" value="+ save(): void&#10;+ update(): void&#10;+ get_id(): ModelIdentification&#10;+ assign_id(value): void&#10;+ __iter__(): dict" style="text;strokeColor=none;fillColor=none;align=left;verticalAlign=top;spacingLeft=4;spacingRight=4;overflow=hidden;rotatable=0;points=[[0,0.5],[1,0.5]];portConstraint=eastwest;" parent="tmnh8rA0YuHe_R3HbrMW-111" vertex="1">
                    <mxGeometry y="68" width="180" height="92" as="geometry"/>
                </mxCell>
                <mxCell id="tmnh8rA0YuHe_R3HbrMW-115" value="" style="endArrow=block;startArrow=block;endFill=1;startFill=1;html=1;exitX=0.205;exitY=0.996;exitDx=0;exitDy=0;exitPerimeter=0;entryX=0.5;entryY=0;entryDx=0;entryDy=0;" parent="jIJPH-z44TZfYb5a6Cpk-1" source="tmnh8rA0YuHe_R3HbrMW-110" target="tmnh8rA0YuHe_R3HbrMW-111" edge="1">
                    <mxGeometry width="160" relative="1" as="geometry">
                        <mxPoint x="-220" y="1270" as="sourcePoint"/>
                        <mxPoint x="-60" y="1270" as="targetPoint"/>
                    </mxGeometry>
                </mxCell>
                <mxCell id="tmnh8rA0YuHe_R3HbrMW-116" value="ModelSheet" style="swimlane;fontStyle=1;align=center;verticalAlign=top;childLayout=stackLayout;horizontal=1;startSize=26;horizontalStack=0;resizeParent=1;resizeParentMax=0;resizeLast=0;collapsible=1;marginBottom=0;" parent="jIJPH-z44TZfYb5a6Cpk-1" vertex="1">
                    <mxGeometry x="420.96" y="1160" width="260" height="200" as="geometry"/>
                </mxCell>
                <mxCell id="tmnh8rA0YuHe_R3HbrMW-117" value="+ model_keys" style="text;strokeColor=none;fillColor=none;align=left;verticalAlign=top;spacingLeft=4;spacingRight=4;overflow=hidden;rotatable=0;points=[[0,0.5],[1,0.5]];portConstraint=eastwest;" parent="tmnh8rA0YuHe_R3HbrMW-116" vertex="1">
                    <mxGeometry y="26" width="260" height="44" as="geometry"/>
                </mxCell>
                <mxCell id="tmnh8rA0YuHe_R3HbrMW-118" value="" style="line;strokeWidth=1;fillColor=none;align=left;verticalAlign=middle;spacingTop=-1;spacingLeft=3;spacingRight=3;rotatable=0;labelPosition=right;points=[];portConstraint=eastwest;strokeColor=inherit;" parent="tmnh8rA0YuHe_R3HbrMW-116" vertex="1">
                    <mxGeometry y="70" width="260" height="8" as="geometry"/>
                </mxCell>
                <mxCell id="tmnh8rA0YuHe_R3HbrMW-119" value="+ records(): int&#10;+ iSingleModel()&#10;- someprivatemethods(): void&#10;- run_db_modification(ExcelRequest, oarams):Â " style="text;strokeColor=none;fillColor=none;align=left;verticalAlign=top;spacingLeft=4;spacingRight=4;overflow=hidden;rotatable=0;points=[[0,0.5],[1,0.5]];portConstraint=eastwest;" parent="tmnh8rA0YuHe_R3HbrMW-116" vertex="1">
                    <mxGeometry y="78" width="260" height="122" as="geometry"/>
                </mxCell>
                <mxCell id="tmnh8rA0YuHe_R3HbrMW-120" value="Extends" style="endArrow=block;endSize=16;endFill=0;html=1;entryX=0;entryY=0.5;entryDx=0;entryDy=0;exitX=1.014;exitY=0.132;exitDx=0;exitDy=0;exitPerimeter=0;" parent="jIJPH-z44TZfYb5a6Cpk-1" source="tmnh8rA0YuHe_R3HbrMW-117" target="tmnh8rA0YuHe_R3HbrMW-91" edge="1">
                    <mxGeometry width="160" relative="1" as="geometry">
                        <mxPoint x="380" y="1200" as="sourcePoint"/>
                        <mxPoint x="540" y="1200" as="targetPoint"/>
                    </mxGeometry>
                </mxCell>
                <mxCell id="tmnh8rA0YuHe_R3HbrMW-121" value="" style="endArrow=block;dashed=1;endFill=0;endSize=12;html=1;entryX=0.75;entryY=1;entryDx=0;entryDy=0;exitX=0;exitY=0;exitDx=0;exitDy=0;" parent="jIJPH-z44TZfYb5a6Cpk-1" source="tmnh8rA0YuHe_R3HbrMW-116" target="tmnh8rA0YuHe_R3HbrMW-103" edge="1">
                    <mxGeometry width="160" relative="1" as="geometry">
                        <mxPoint x="70" y="1060" as="sourcePoint"/>
                        <mxPoint x="330" y="1150" as="targetPoint"/>
                    </mxGeometry>
                </mxCell>
                <mxCell id="tmnh8rA0YuHe_R3HbrMW-129" value="" style="endArrow=diamondThin;endFill=0;endSize=24;html=1;exitX=0.48;exitY=0.994;exitDx=0;exitDy=0;entryX=0.5;entryY=0;entryDx=0;entryDy=0;exitPerimeter=0;" parent="jIJPH-z44TZfYb5a6Cpk-1" source="tmnh8rA0YuHe_R3HbrMW-56" target="tmnh8rA0YuHe_R3HbrMW-70" edge="1">
                    <mxGeometry width="160" relative="1" as="geometry">
                        <mxPoint x="960" y="790" as="sourcePoint"/>
                        <mxPoint x="1120" y="790" as="targetPoint"/>
                    </mxGeometry>
                </mxCell>
                <mxCell id="tmnh8rA0YuHe_R3HbrMW-130" value="1" style="endArrow=open;html=1;endSize=12;startArrow=diamondThin;startSize=14;startFill=1;edgeStyle=orthogonalEdgeStyle;align=left;verticalAlign=bottom;exitX=1;exitY=0.5;exitDx=0;exitDy=0;entryX=0;entryY=0.5;entryDx=0;entryDy=0;" parent="jIJPH-z44TZfYb5a6Cpk-1" source="tmnh8rA0YuHe_R3HbrMW-112" target="tmnh8rA0YuHe_R3HbrMW-117" edge="1">
                    <mxGeometry x="-1" y="3" relative="1" as="geometry">
                        <mxPoint y="1080" as="sourcePoint"/>
                        <mxPoint x="160" y="1080" as="targetPoint"/>
                    </mxGeometry>
                </mxCell>
                <mxCell id="tmnh8rA0YuHe_R3HbrMW-133" value="" style="endArrow=open;endFill=1;endSize=12;html=1;exitX=0.143;exitY=0.004;exitDx=0;exitDy=0;exitPerimeter=0;entryX=0;entryY=0.5;entryDx=0;entryDy=0;" parent="jIJPH-z44TZfYb5a6Cpk-1" source="tmnh8rA0YuHe_R3HbrMW-92" target="tmnh8rA0YuHe_R3HbrMW-27" edge="1">
                    <mxGeometry width="160" relative="1" as="geometry">
                        <mxPoint x="940" y="760" as="sourcePoint"/>
                        <mxPoint x="570" y="180" as="targetPoint"/>
                        <Array as="points">
                            <mxPoint x="570" y="160"/>
                        </Array>
                    </mxGeometry>
                </mxCell>
                <mxCell id="tmnh8rA0YuHe_R3HbrMW-134" value="" style="endArrow=open;endFill=1;endSize=12;html=1;exitX=1;exitY=0.5;exitDx=0;exitDy=0;entryX=0.5;entryY=0;entryDx=0;entryDy=0;" parent="jIJPH-z44TZfYb5a6Cpk-1" source="tmnh8rA0YuHe_R3HbrMW-119" target="tmnh8rA0YuHe_R3HbrMW-26" edge="1">
                    <mxGeometry width="160" relative="1" as="geometry">
                        <mxPoint x="940" y="890" as="sourcePoint"/>
                        <mxPoint x="930" as="targetPoint"/>
                        <Array as="points">
                            <mxPoint x="1560" y="1260"/>
                            <mxPoint x="1610" y="640"/>
                            <mxPoint x="1620" y="20"/>
                            <mxPoint x="990"/>
                        </Array>
                    </mxGeometry>
                </mxCell>
                <mxCell id="sh7kUK1PqY58PZ8OyMcY-0" value="" style="endArrow=diamondThin;endFill=1;endSize=24;html=1;exitX=0.924;exitY=1.065;exitDx=0;exitDy=0;exitPerimeter=0;entryX=0;entryY=0.5;entryDx=0;entryDy=0;" edge="1" parent="jIJPH-z44TZfYb5a6Cpk-1" source="ZozACURnkXN204Pw1X0l-9" target="tmnh8rA0YuHe_R3HbrMW-89">
                    <mxGeometry width="160" relative="1" as="geometry">
                        <mxPoint x="360" y="840" as="sourcePoint"/>
                        <mxPoint x="520" y="840" as="targetPoint"/>
                        <Array as="points">
                            <mxPoint x="480" y="1070"/>
                        </Array>
                    </mxGeometry>
                </mxCell>
                <mxCell id="sh7kUK1PqY58PZ8OyMcY-1" value="" style="endArrow=diamondThin;endFill=1;endSize=24;html=1;entryX=0.75;entryY=0;entryDx=0;entryDy=0;" edge="1" parent="jIJPH-z44TZfYb5a6Cpk-1" source="tmnh8rA0YuHe_R3HbrMW-78" target="tmnh8rA0YuHe_R3HbrMW-88">
                    <mxGeometry width="160" relative="1" as="geometry">
                        <mxPoint x="770" y="1120" as="sourcePoint"/>
                        <mxPoint x="930" y="1120" as="targetPoint"/>
                    </mxGeometry>
                </mxCell>
                <mxCell id="sh7kUK1PqY58PZ8OyMcY-2" value="" style="endArrow=diamondThin;endFill=1;endSize=24;html=1;entryX=0;entryY=0.5;entryDx=0;entryDy=0;" edge="1" parent="jIJPH-z44TZfYb5a6Cpk-1" source="tmnh8rA0YuHe_R3HbrMW-88" target="tmnh8rA0YuHe_R3HbrMW-61">
                    <mxGeometry width="160" relative="1" as="geometry">
                        <mxPoint x="670" y="970" as="sourcePoint"/>
                        <mxPoint x="830" y="970" as="targetPoint"/>
                        <Array as="points">
                            <mxPoint x="800" y="1080"/>
                            <mxPoint x="800" y="910"/>
                            <mxPoint x="850" y="880"/>
                        </Array>
                    </mxGeometry>
                </mxCell>
                <mxCell id="sh7kUK1PqY58PZ8OyMcY-3" value="" style="endArrow=diamondThin;endFill=0;endSize=24;html=1;entryX=1;entryY=0.5;entryDx=0;entryDy=0;exitX=1;exitY=0;exitDx=0;exitDy=0;" edge="1" parent="jIJPH-z44TZfYb5a6Cpk-1" source="tmnh8rA0YuHe_R3HbrMW-53" target="tmnh8rA0YuHe_R3HbrMW-24">
                    <mxGeometry width="160" relative="1" as="geometry">
                        <mxPoint x="1030" y="520" as="sourcePoint"/>
                        <mxPoint x="1190" y="520" as="targetPoint"/>
                        <Array as="points">
                            <mxPoint x="1560" y="500"/>
                            <mxPoint x="1570" y="180"/>
                        </Array>
                    </mxGeometry>
                </mxCell>
            </root>
        </mxGraphModel>
    </diagram>
    <diagram id="wMF2hKMr8vryYnDa7fS0" name="Page-1">
        <mxGraphModel dx="1523" dy="1187" grid="1" gridSize="10" guides="1" tooltips="1" connect="1" arrows="1" fold="1" page="0" pageScale="1" pageWidth="850" pageHeight="1100" math="0" shadow="0">
            <root>
                <mxCell id="0"/>
                <mxCell id="1" parent="0"/>
                <mxCell id="2" value="ExcelFile" style="swimlane;rounded=0;" parent="1" vertex="1">
                    <mxGeometry x="320" y="860" width="200" height="100" as="geometry"/>
                </mxCell>
                <mxCell id="3" value="Sheet1" style="text;html=1;align=center;verticalAlign=middle;resizable=0;points=[];autosize=1;strokeColor=none;fillColor=none;rounded=0;" parent="2" vertex="1">
                    <mxGeometry x="5" y="30" width="60" height="30" as="geometry"/>
                </mxCell>
                <mxCell id="5" value="Sheet2" style="text;html=1;align=center;verticalAlign=middle;resizable=0;points=[];autosize=1;strokeColor=none;fillColor=none;rounded=0;" parent="2" vertex="1">
                    <mxGeometry x="5" y="60" width="60" height="30" as="geometry"/>
                </mxCell>
                <mxCell id="7" value="pyodbc &#10;byÂ mkleehammer" style="shape=module;align=left;spacingLeft=20;align=center;verticalAlign=top;rounded=0;" parent="1" vertex="1">
                    <mxGeometry x="520" y="710" width="150" height="50" as="geometry"/>
                </mxCell>
                <mxCell id="8" value="odbc driver&lt;br&gt;Microsoft Excel" style="html=1;rounded=0;" parent="1" vertex="1">
                    <mxGeometry x="660" y="590" width="110" height="50" as="geometry"/>
                </mxCell>
                <mxCell id="13" value="Connection&#10;(singletone)" style="swimlane;fontStyle=1;align=center;verticalAlign=top;childLayout=stackLayout;horizontal=1;startSize=50;horizontalStack=0;resizeParent=1;resizeParentMax=0;resizeLast=0;collapsible=1;marginBottom=0;rounded=0;" parent="1" vertex="1">
                    <mxGeometry x="280" y="670" width="160" height="120" as="geometry"/>
                </mxCell>
                <mxCell id="14" value="- connection: Connection" style="text;strokeColor=none;fillColor=none;align=left;verticalAlign=top;spacingLeft=4;spacingRight=4;overflow=hidden;rotatable=0;points=[[0,0.5],[1,0.5]];portConstraint=eastwest;rounded=0;" parent="13" vertex="1">
                    <mxGeometry y="50" width="160" height="26" as="geometry"/>
                </mxCell>
                <mxCell id="15" value="" style="line;strokeWidth=1;fillColor=none;align=left;verticalAlign=middle;spacingTop=-1;spacingLeft=3;spacingRight=3;rotatable=0;labelPosition=right;points=[];portConstraint=eastwest;strokeColor=inherit;rounded=0;" parent="13" vertex="1">
                    <mxGeometry y="76" width="160" height="8" as="geometry"/>
                </mxCell>
                <mxCell id="16" value="+ Connection(): connection" style="text;strokeColor=none;fillColor=none;align=left;verticalAlign=top;spacingLeft=4;spacingRight=4;overflow=hidden;rotatable=0;points=[[0,0.5],[1,0.5]];portConstraint=eastwest;rounded=0;" parent="13" vertex="1">
                    <mxGeometry y="84" width="160" height="36" as="geometry"/>
                </mxCell>
                <mxCell id="17" value="Controller" style="swimlane;fontStyle=1;align=center;verticalAlign=top;childLayout=stackLayout;horizontal=1;startSize=30;horizontalStack=0;resizeParent=1;resizeParentMax=0;resizeLast=0;collapsible=1;marginBottom=0;rounded=0;" parent="1" vertex="1">
                    <mxGeometry x="350" y="420" width="340" height="160" as="geometry"/>
                </mxCell>
                <mxCell id="18" value="+ db: Connection&#10;+ sheet1Table: ExcelSheet&#10;+ sheet2Table: ExcelSheet" style="text;strokeColor=none;fillColor=none;align=left;verticalAlign=top;spacingLeft=4;spacingRight=4;overflow=hidden;rotatable=0;points=[[0,0.5],[1,0.5]];portConstraint=eastwest;rounded=0;" parent="17" vertex="1">
                    <mxGeometry y="30" width="340" height="60" as="geometry"/>
                </mxCell>
                <mxCell id="19" value="" style="line;strokeWidth=1;fillColor=none;align=left;verticalAlign=middle;spacingTop=-1;spacingLeft=3;spacingRight=3;rotatable=0;labelPosition=right;points=[];portConstraint=eastwest;strokeColor=inherit;rounded=0;" parent="17" vertex="1">
                    <mxGeometry y="90" width="340" height="8" as="geometry"/>
                </mxCell>
                <mxCell id="20" value="- get_cursor(): odbc.Cursor&#10;+ run(request:ExcelRequest, (args) = None): odbc.Cursor" style="text;strokeColor=none;fillColor=none;align=left;verticalAlign=top;spacingLeft=4;spacingRight=4;overflow=hidden;rotatable=0;points=[[0,0.5],[1,0.5]];portConstraint=eastwest;rounded=0;" parent="17" vertex="1">
                    <mxGeometry y="98" width="340" height="62" as="geometry"/>
                </mxCell>
                <mxCell id="21" value="ExcelSheet" style="swimlane;fontStyle=1;align=center;verticalAlign=top;childLayout=stackLayout;horizontal=1;startSize=26;horizontalStack=0;resizeParent=1;resizeParentMax=0;resizeLast=0;collapsible=1;marginBottom=0;rounded=0;" parent="1" vertex="1">
                    <mxGeometry x="280" y="100" width="160" height="140" as="geometry"/>
                </mxCell>
                <mxCell id="22" value="+ column1: ExcelColumn&#10;+ column2: ExcelColumn&#10;+ column3: ExcelColumn&#10;- controller: Controller" style="text;strokeColor=none;fillColor=none;align=left;verticalAlign=top;spacingLeft=4;spacingRight=4;overflow=hidden;rotatable=0;points=[[0,0.5],[1,0.5]];portConstraint=eastwest;rounded=0;" parent="21" vertex="1">
                    <mxGeometry y="26" width="160" height="64" as="geometry"/>
                </mxCell>
                <mxCell id="23" value="" style="line;strokeWidth=1;fillColor=none;align=left;verticalAlign=middle;spacingTop=-1;spacingLeft=3;spacingRight=3;rotatable=0;labelPosition=right;points=[];portConstraint=eastwest;strokeColor=inherit;rounded=0;" parent="21" vertex="1">
                    <mxGeometry y="90" width="160" height="8" as="geometry"/>
                </mxCell>
                <mxCell id="24" value="+ ExcelSheet(Controller)&#10;+ __str__(): str" style="text;strokeColor=none;fillColor=none;align=left;verticalAlign=top;spacingLeft=4;spacingRight=4;overflow=hidden;rotatable=0;points=[[0,0.5],[1,0.5]];portConstraint=eastwest;rounded=0;" parent="21" vertex="1">
                    <mxGeometry y="98" width="160" height="42" as="geometry"/>
                </mxCell>
                <mxCell id="25" value="ExcelColumn" style="swimlane;fontStyle=1;align=center;verticalAlign=top;childLayout=stackLayout;horizontal=1;startSize=26;horizontalStack=0;resizeParent=1;resizeParentMax=0;resizeLast=0;collapsible=1;marginBottom=0;rounded=0;" parent="1" vertex="1">
                    <mxGeometry x="60" y="350" width="240" height="150" as="geometry"/>
                </mxCell>
                <mxCell id="26" value="+ title: str&#10;+ valuetype:Â  type" style="text;strokeColor=none;fillColor=none;align=left;verticalAlign=top;spacingLeft=4;spacingRight=4;overflow=hidden;rotatable=0;points=[[0,0.5],[1,0.5]];portConstraint=eastwest;rounded=0;" parent="25" vertex="1">
                    <mxGeometry y="26" width="240" height="54" as="geometry"/>
                </mxCell>
                <mxCell id="27" value="" style="line;strokeWidth=1;fillColor=none;align=left;verticalAlign=middle;spacingTop=-1;spacingLeft=3;spacingRight=3;rotatable=0;labelPosition=right;points=[];portConstraint=eastwest;strokeColor=inherit;rounded=0;" parent="25" vertex="1">
                    <mxGeometry y="80" width="240" height="8" as="geometry"/>
                </mxCell>
                <mxCell id="28" value="+ ExcelColumn(title:str, valuetype:type)&#10;- to_format(value:any): type(value)&#10;+ __str__(): str" style="text;strokeColor=none;fillColor=none;align=left;verticalAlign=top;spacingLeft=4;spacingRight=4;overflow=hidden;rotatable=0;points=[[0,0.5],[1,0.5]];portConstraint=eastwest;rounded=0;" parent="25" vertex="1">
                    <mxGeometry y="88" width="240" height="62" as="geometry"/>
                </mxCell>
                <mxCell id="29" value="ExcelRequest" style="swimlane;fontStyle=1;align=center;verticalAlign=top;childLayout=stackLayout;horizontal=1;startSize=26;horizontalStack=0;resizeParent=1;resizeParentMax=0;resizeLast=0;collapsible=1;marginBottom=0;rounded=0;" parent="1" vertex="1">
                    <mxGeometry y="100" width="160" height="170" as="geometry"/>
                </mxCell>
                <mxCell id="30" value="- command: str&#10;+ columns: str&#10;- sheet: str&#10;- pug: str" style="text;strokeColor=none;fillColor=none;align=left;verticalAlign=top;spacingLeft=4;spacingRight=4;overflow=hidden;rotatable=0;points=[[0,0.5],[1,0.5]];portConstraint=eastwest;rounded=0;" parent="29" vertex="1">
                    <mxGeometry y="26" width="160" height="64" as="geometry"/>
                </mxCell>
                <mxCell id="31" value="" style="line;strokeWidth=1;fillColor=none;align=left;verticalAlign=middle;spacingTop=-1;spacingLeft=3;spacingRight=3;rotatable=0;labelPosition=right;points=[];portConstraint=eastwest;strokeColor=inherit;rounded=0;" parent="29" vertex="1">
                    <mxGeometry y="90" width="160" height="8" as="geometry"/>
                </mxCell>
                <mxCell id="32" value="+ ExcelRequest(&#10;Â Â Â Â Â Â Â Â sheet:ExcelSheet,&#10;Â Â Â Â Â Â Â Â tuple(ExcelColumn))&#10;+ __str__(): str" style="text;strokeColor=none;fillColor=none;align=left;verticalAlign=top;spacingLeft=4;spacingRight=4;overflow=hidden;rotatable=0;points=[[0,0.5],[1,0.5]];portConstraint=eastwest;rounded=0;" parent="29" vertex="1">
                    <mxGeometry y="98" width="160" height="72" as="geometry"/>
                </mxCell>
                <mxCell id="35" value="" style="endArrow=diamondThin;endFill=1;endSize=24;html=1;rounded=0;" parent="1" source="13" target="20" edge="1">
                    <mxGeometry width="160" relative="1" as="geometry">
                        <mxPoint x="310" y="640" as="sourcePoint"/>
                        <mxPoint x="200" y="670" as="targetPoint"/>
                    </mxGeometry>
                </mxCell>
                <mxCell id="36" value="" style="endArrow=diamondThin;endFill=1;endSize=24;html=1;exitX=0.5;exitY=0;exitDx=0;exitDy=0;rounded=0;" parent="1" source="17" target="24" edge="1">
                    <mxGeometry width="160" relative="1" as="geometry">
                        <mxPoint x="340" y="510" as="sourcePoint"/>
                        <mxPoint x="500" y="510" as="targetPoint"/>
                    </mxGeometry>
                </mxCell>
                <mxCell id="37" value="" style="endArrow=diamondThin;endFill=1;endSize=24;html=1;entryX=1;entryY=0.5;entryDx=0;entryDy=0;rounded=0;exitX=0;exitY=0;exitDx=0;exitDy=15;exitPerimeter=0;" parent="1" source="7" target="14" edge="1">
                    <mxGeometry width="160" relative="1" as="geometry">
                        <mxPoint x="470" y="770" as="sourcePoint"/>
                        <mxPoint x="500" y="510" as="targetPoint"/>
                    </mxGeometry>
                </mxCell>
                <mxCell id="38" value="" style="endArrow=diamondThin;endFill=1;endSize=24;html=1;rounded=0;exitX=1;exitY=0;exitDx=0;exitDy=0;" parent="1" source="25" target="24" edge="1">
                    <mxGeometry width="160" relative="1" as="geometry">
                        <mxPoint x="540" y="270" as="sourcePoint"/>
                        <mxPoint x="500" y="510" as="targetPoint"/>
                    </mxGeometry>
                </mxCell>
                <mxCell id="41" value="Use" style="endArrow=open;endSize=12;dashed=1;html=1;entryX=0.5;entryY=1;entryDx=0;entryDy=0;exitX=1;exitY=0;exitDx=0;exitDy=0;rounded=0;" parent="1" source="7" target="8" edge="1">
                    <mxGeometry width="160" relative="1" as="geometry">
                        <mxPoint x="340" y="510" as="sourcePoint"/>
                        <mxPoint x="500" y="510" as="targetPoint"/>
                    </mxGeometry>
                </mxCell>
                <mxCell id="42" value="Use" style="endArrow=open;endSize=12;dashed=1;html=1;entryX=0.5;entryY=0;entryDx=0;entryDy=0;exitX=0.473;exitY=1.078;exitDx=0;exitDy=0;exitPerimeter=0;rounded=0;" parent="1" source="16" target="2" edge="1">
                    <mxGeometry width="160" relative="1" as="geometry">
                        <mxPoint x="370" y="800" as="sourcePoint"/>
                        <mxPoint x="500" y="500" as="targetPoint"/>
                    </mxGeometry>
                </mxCell>
                <mxCell id="43" value="&lt;&lt; iSelect &gt;&gt;" style="swimlane;fontStyle=2;align=center;verticalAlign=top;childLayout=stackLayout;horizontal=1;startSize=26;horizontalStack=0;resizeParent=1;resizeParentMax=0;resizeLast=0;collapsible=1;marginBottom=0;rounded=0;" parent="1" vertex="1">
                    <mxGeometry x="280" y="-190" width="160" height="60" as="geometry"/>
                </mxCell>
                <mxCell id="45" value="" style="line;strokeWidth=1;fillColor=none;align=left;verticalAlign=middle;spacingTop=-1;spacingLeft=3;spacingRight=3;rotatable=0;labelPosition=right;points=[];portConstraint=eastwest;strokeColor=inherit;rounded=0;" parent="43" vertex="1">
                    <mxGeometry y="26" width="160" height="8" as="geometry"/>
                </mxCell>
                <mxCell id="46" value="+ select():Â  ExcelRequest" style="text;strokeColor=none;fillColor=none;align=left;verticalAlign=top;spacingLeft=4;spacingRight=4;overflow=hidden;rotatable=0;points=[[0,0.5],[1,0.5]];portConstraint=eastwest;rounded=0;" parent="43" vertex="1">
                    <mxGeometry y="34" width="160" height="26" as="geometry"/>
                </mxCell>
                <mxCell id="47" value="&lt;&lt; iFind &gt;&gt;" style="swimlane;fontStyle=2;align=center;verticalAlign=top;childLayout=stackLayout;horizontal=1;startSize=26;horizontalStack=0;resizeParent=1;resizeParentMax=0;resizeLast=0;collapsible=1;marginBottom=0;rounded=0;" parent="1" vertex="1">
                    <mxGeometry x="400" y="-110" width="160" height="80" as="geometry"/>
                </mxCell>
                <mxCell id="48" value="" style="line;strokeWidth=1;fillColor=none;align=left;verticalAlign=middle;spacingTop=-1;spacingLeft=3;spacingRight=3;rotatable=0;labelPosition=right;points=[];portConstraint=eastwest;strokeColor=inherit;rounded=0;" parent="47" vertex="1">
                    <mxGeometry y="26" width="160" height="8" as="geometry"/>
                </mxCell>
                <mxCell id="49" value="+ find():Â  ExcelRequest&#10;+ find_all():Â  ExcelRequest" style="text;strokeColor=none;fillColor=none;align=left;verticalAlign=top;spacingLeft=4;spacingRight=4;overflow=hidden;rotatable=0;points=[[0,0.5],[1,0.5]];portConstraint=eastwest;rounded=0;" parent="47" vertex="1">
                    <mxGeometry y="34" width="160" height="46" as="geometry"/>
                </mxCell>
                <mxCell id="50" value="&lt;&lt; iUpdate &gt;&gt;" style="swimlane;fontStyle=2;align=center;verticalAlign=top;childLayout=stackLayout;horizontal=1;startSize=26;horizontalStack=0;resizeParent=1;resizeParentMax=0;resizeLast=0;collapsible=1;marginBottom=0;rounded=0;" parent="1" vertex="1">
                    <mxGeometry x="520" y="20" width="160" height="60" as="geometry"/>
                </mxCell>
                <mxCell id="51" value="" style="line;strokeWidth=1;fillColor=none;align=left;verticalAlign=middle;spacingTop=-1;spacingLeft=3;spacingRight=3;rotatable=0;labelPosition=right;points=[];portConstraint=eastwest;strokeColor=inherit;rounded=0;" parent="50" vertex="1">
                    <mxGeometry y="26" width="160" height="8" as="geometry"/>
                </mxCell>
                <mxCell id="52" value="+ update():Â  ExcelRequest" style="text;strokeColor=none;fillColor=none;align=left;verticalAlign=top;spacingLeft=4;spacingRight=4;overflow=hidden;rotatable=0;points=[[0,0.5],[1,0.5]];portConstraint=eastwest;rounded=0;" parent="50" vertex="1">
                    <mxGeometry y="34" width="160" height="26" as="geometry"/>
                </mxCell>
                <mxCell id="53" value="&lt;&lt; iDelete &gt;&gt;" style="swimlane;fontStyle=2;align=center;verticalAlign=top;childLayout=stackLayout;horizontal=1;startSize=26;horizontalStack=0;resizeParent=1;resizeParentMax=0;resizeLast=0;collapsible=1;marginBottom=0;rounded=0;" parent="1" vertex="1">
                    <mxGeometry x="90" y="20" width="160" height="60" as="geometry"/>
                </mxCell>
                <mxCell id="54" value="" style="line;strokeWidth=1;fillColor=none;align=left;verticalAlign=middle;spacingTop=-1;spacingLeft=3;spacingRight=3;rotatable=0;labelPosition=right;points=[];portConstraint=eastwest;strokeColor=inherit;rounded=0;" parent="53" vertex="1">
                    <mxGeometry y="26" width="160" height="8" as="geometry"/>
                </mxCell>
                <mxCell id="55" value="+ delete():Â  ExcelRequest" style="text;strokeColor=none;fillColor=none;align=left;verticalAlign=top;spacingLeft=4;spacingRight=4;overflow=hidden;rotatable=0;points=[[0,0.5],[1,0.5]];portConstraint=eastwest;rounded=0;" parent="53" vertex="1">
                    <mxGeometry y="34" width="160" height="26" as="geometry"/>
                </mxCell>
                <mxCell id="56" value="&lt;&lt; iInsert &gt;&gt;Â Â Â Â " style="swimlane;fontStyle=2;align=center;verticalAlign=top;childLayout=stackLayout;horizontal=1;startSize=26;horizontalStack=0;resizeParent=1;resizeParentMax=0;resizeLast=0;collapsible=1;marginBottom=0;rounded=0;" parent="1" vertex="1">
                    <mxGeometry x="160" y="-110" width="160" height="60" as="geometry"/>
                </mxCell>
                <mxCell id="57" value="" style="line;strokeWidth=1;fillColor=none;align=left;verticalAlign=middle;spacingTop=-1;spacingLeft=3;spacingRight=3;rotatable=0;labelPosition=right;points=[];portConstraint=eastwest;strokeColor=inherit;rounded=0;" parent="56" vertex="1">
                    <mxGeometry y="26" width="160" height="8" as="geometry"/>
                </mxCell>
                <mxCell id="58" value="+ insert():Â  ExcelRequest" style="text;strokeColor=none;fillColor=none;align=left;verticalAlign=top;spacingLeft=4;spacingRight=4;overflow=hidden;rotatable=0;points=[[0,0.5],[1,0.5]];portConstraint=eastwest;rounded=0;" parent="56" vertex="1">
                    <mxGeometry y="34" width="160" height="26" as="geometry"/>
                </mxCell>
                <mxCell id="62" value="" style="endArrow=block;dashed=1;endFill=0;endSize=12;html=1;entryX=0.538;entryY=1.155;entryDx=0;entryDy=0;entryPerimeter=0;exitX=0.5;exitY=0;exitDx=0;exitDy=0;rounded=0;" parent="1" source="21" target="58" edge="1">
                    <mxGeometry width="160" relative="1" as="geometry">
                        <mxPoint x="90" y="60" as="sourcePoint"/>
                        <mxPoint x="250" y="60" as="targetPoint"/>
                    </mxGeometry>
                </mxCell>
                <mxCell id="63" value="" style="endArrow=block;dashed=1;endFill=0;endSize=12;html=1;rounded=0;entryX=0.478;entryY=1.062;entryDx=0;entryDy=0;entryPerimeter=0;exitX=0.5;exitY=0;exitDx=0;exitDy=0;" parent="1" source="21" target="46" edge="1">
                    <mxGeometry width="160" relative="1" as="geometry">
                        <mxPoint x="350" y="90" as="sourcePoint"/>
                        <mxPoint x="500" y="260" as="targetPoint"/>
                    </mxGeometry>
                </mxCell>
                <mxCell id="64" value="" style="endArrow=block;dashed=1;endFill=0;endSize=12;html=1;rounded=0;entryX=0.25;entryY=1;entryDx=0;entryDy=0;exitX=0.5;exitY=0;exitDx=0;exitDy=0;" parent="1" source="21" target="47" edge="1">
                    <mxGeometry width="160" relative="1" as="geometry">
                        <mxPoint x="370" y="110" as="sourcePoint"/>
                        <mxPoint x="366.48" y="-8.38799999999992" as="targetPoint"/>
                    </mxGeometry>
                </mxCell>
                <mxCell id="65" value="" style="endArrow=block;dashed=1;endFill=0;endSize=12;html=1;rounded=0;entryX=0;entryY=0.5;entryDx=0;entryDy=0;exitX=1;exitY=0;exitDx=0;exitDy=0;" parent="1" source="21" target="52" edge="1">
                    <mxGeometry width="160" relative="1" as="geometry">
                        <mxPoint x="380" y="120" as="sourcePoint"/>
                        <mxPoint x="376.48" y="1.61200000000008" as="targetPoint"/>
                    </mxGeometry>
                </mxCell>
                <mxCell id="66" value="" style="endArrow=block;dashed=1;endFill=0;endSize=12;html=1;rounded=0;entryX=1;entryY=0.5;entryDx=0;entryDy=0;exitX=0;exitY=0;exitDx=0;exitDy=0;" parent="1" source="21" target="55" edge="1">
                    <mxGeometry width="160" relative="1" as="geometry">
                        <mxPoint x="390" y="130" as="sourcePoint"/>
                        <mxPoint x="386.48" y="11.61200000000008" as="targetPoint"/>
                    </mxGeometry>
                </mxCell>
                <mxCell id="69" value="" style="endArrow=diamondThin;endFill=0;endSize=24;html=1;exitX=0.5;exitY=0;exitDx=0;exitDy=0;" parent="1" source="25" target="32" edge="1">
                    <mxGeometry width="160" relative="1" as="geometry">
                        <mxPoint x="340" y="420" as="sourcePoint"/>
                        <mxPoint x="500" y="420" as="targetPoint"/>
                    </mxGeometry>
                </mxCell>
                <mxCell id="70" value="" style="endArrow=diamondThin;endFill=0;endSize=24;html=1;entryX=1;entryY=0.5;entryDx=0;entryDy=0;exitX=0;exitY=0.5;exitDx=0;exitDy=0;" parent="1" source="24" target="32" edge="1">
                    <mxGeometry width="160" relative="1" as="geometry">
                        <mxPoint x="340" y="300" as="sourcePoint"/>
                        <mxPoint x="500" y="300" as="targetPoint"/>
                    </mxGeometry>
                </mxCell>
                <mxCell id="71" value="" style="endArrow=none;endFill=0;endSize=12;html=1;exitX=0;exitY=0.5;exitDx=0;exitDy=0;rounded=0;startArrow=open;startFill=0;" parent="1" source="20" target="32" edge="1">
                    <mxGeometry width="160" relative="1" as="geometry">
                        <mxPoint x="60" y="660" as="sourcePoint"/>
                        <mxPoint x="50" y="300" as="targetPoint"/>
                        <Array as="points">
                            <mxPoint x="40" y="550"/>
                            <mxPoint x="40" y="320"/>
                        </Array>
                    </mxGeometry>
                </mxCell>
                <mxCell id="77" value="Extends" style="endArrow=block;endSize=16;endFill=0;html=1;rounded=0;entryX=0.25;entryY=0;entryDx=0;entryDy=0;" parent="1" source="82" target="29" edge="1">
                    <mxGeometry width="160" relative="1" as="geometry">
                        <mxPoint as="sourcePoint"/>
                        <mxPoint x="140" y="300" as="targetPoint"/>
                    </mxGeometry>
                </mxCell>
                <mxCell id="78" value="Extends" style="endArrow=block;endSize=16;endFill=0;html=1;rounded=0;exitX=1;exitY=0.5;exitDx=0;exitDy=0;entryX=0;entryY=0;entryDx=0;entryDy=0;" parent="1" source="84" target="29" edge="1">
                    <mxGeometry width="160" relative="1" as="geometry">
                        <mxPoint x="-90" y="250" as="sourcePoint"/>
                        <mxPoint x="140" y="300" as="targetPoint"/>
                    </mxGeometry>
                </mxCell>
                <mxCell id="79" value="SelectRequest" style="swimlane;fontStyle=1;align=center;verticalAlign=top;childLayout=stackLayout;horizontal=1;startSize=26;horizontalStack=0;resizeParent=1;resizeParentMax=0;resizeLast=0;collapsible=1;marginBottom=0;" parent="1" vertex="1">
                    <mxGeometry x="-280" y="-320" width="160" height="210" as="geometry"/>
                </mxCell>
                <mxCell id="80" value="- distinct: strÂ &#10;- where: str&#10;- group_by: str&#10;- having: str&#10;- order_by: str" style="text;strokeColor=none;fillColor=none;align=left;verticalAlign=top;spacingLeft=4;spacingRight=4;overflow=hidden;rotatable=0;points=[[0,0.5],[1,0.5]];portConstraint=eastwest;" parent="79" vertex="1">
                    <mxGeometry y="26" width="160" height="94" as="geometry"/>
                </mxCell>
                <mxCell id="81" value="" style="line;strokeWidth=1;fillColor=none;align=left;verticalAlign=middle;spacingTop=-1;spacingLeft=3;spacingRight=3;rotatable=0;labelPosition=right;points=[];portConstraint=eastwest;strokeColor=inherit;" parent="79" vertex="1">
                    <mxGeometry y="120" width="160" height="8" as="geometry"/>
                </mxCell>
                <mxCell id="82" value="+ distinct(bool): void&#10;+ where(str): void&#10;+ group_by(str): void&#10;+ having(str): void&#10;+ order_by(str): void" style="text;strokeColor=none;fillColor=none;align=left;verticalAlign=top;spacingLeft=4;spacingRight=4;overflow=hidden;rotatable=0;points=[[0,0.5],[1,0.5]];portConstraint=eastwest;" parent="79" vertex="1">
                    <mxGeometry y="128" width="160" height="82" as="geometry"/>
                </mxCell>
                <mxCell id="83" value="UpdateRequest" style="swimlane;fontStyle=1;align=center;verticalAlign=top;childLayout=stackLayout;horizontal=1;startSize=26;horizontalStack=0;resizeParent=1;resizeParentMax=0;resizeLast=0;collapsible=1;marginBottom=0;" parent="1" vertex="1">
                    <mxGeometry x="-320" y="10" width="160" height="120" as="geometry"/>
                </mxCell>
                <mxCell id="84" value="- set: str&#10;- where: str" style="text;strokeColor=none;fillColor=none;align=left;verticalAlign=top;spacingLeft=4;spacingRight=4;overflow=hidden;rotatable=0;points=[[0,0.5],[1,0.5]];portConstraint=eastwest;" parent="83" vertex="1">
                    <mxGeometry y="26" width="160" height="44" as="geometry"/>
                </mxCell>
                <mxCell id="85" value="" style="line;strokeWidth=1;fillColor=none;align=left;verticalAlign=middle;spacingTop=-1;spacingLeft=3;spacingRight=3;rotatable=0;labelPosition=right;points=[];portConstraint=eastwest;strokeColor=inherit;" parent="83" vertex="1">
                    <mxGeometry y="70" width="160" height="8" as="geometry"/>
                </mxCell>
                <mxCell id="86" value="+ set(str): void&#10;+ where(str): void" style="text;strokeColor=none;fillColor=none;align=left;verticalAlign=top;spacingLeft=4;spacingRight=4;overflow=hidden;rotatable=0;points=[[0,0.5],[1,0.5]];portConstraint=eastwest;" parent="83" vertex="1">
                    <mxGeometry y="78" width="160" height="42" as="geometry"/>
                </mxCell>
                <mxCell id="87" value="DeleteRequest" style="swimlane;fontStyle=1;align=center;verticalAlign=top;childLayout=stackLayout;horizontal=1;startSize=26;horizontalStack=0;resizeParent=1;resizeParentMax=0;resizeLast=0;collapsible=1;marginBottom=0;" parent="1" vertex="1">
                    <mxGeometry x="-320" y="160" width="160" height="86" as="geometry"/>
                </mxCell>
                <mxCell id="88" value="- where: str" style="text;strokeColor=none;fillColor=none;align=left;verticalAlign=top;spacingLeft=4;spacingRight=4;overflow=hidden;rotatable=0;points=[[0,0.5],[1,0.5]];portConstraint=eastwest;" parent="87" vertex="1">
                    <mxGeometry y="26" width="160" height="26" as="geometry"/>
                </mxCell>
                <mxCell id="89" value="" style="line;strokeWidth=1;fillColor=none;align=left;verticalAlign=middle;spacingTop=-1;spacingLeft=3;spacingRight=3;rotatable=0;labelPosition=right;points=[];portConstraint=eastwest;strokeColor=inherit;" parent="87" vertex="1">
                    <mxGeometry y="52" width="160" height="8" as="geometry"/>
                </mxCell>
                <mxCell id="90" value="+ where(str): void" style="text;strokeColor=none;fillColor=none;align=left;verticalAlign=top;spacingLeft=4;spacingRight=4;overflow=hidden;rotatable=0;points=[[0,0.5],[1,0.5]];portConstraint=eastwest;" parent="87" vertex="1">
                    <mxGeometry y="60" width="160" height="26" as="geometry"/>
                </mxCell>
                <mxCell id="91" value="Extends" style="endArrow=block;endSize=16;endFill=0;html=1;rounded=0;exitX=1;exitY=0.5;exitDx=0;exitDy=0;entryX=0;entryY=0.5;entryDx=0;entryDy=0;" parent="1" source="88" target="30" edge="1">
                    <mxGeometry x="0.005" width="160" relative="1" as="geometry">
                        <mxPoint x="-150" y="89" as="sourcePoint"/>
                        <mxPoint x="10" y="110" as="targetPoint"/>
                        <mxPoint as="offset"/>
                    </mxGeometry>
                </mxCell>
                <mxCell id="93" value="InsertRequest" style="swimlane;fontStyle=1;align=center;verticalAlign=top;childLayout=stackLayout;horizontal=1;startSize=26;horizontalStack=0;resizeParent=1;resizeParentMax=0;resizeLast=0;collapsible=1;marginBottom=0;" parent="1" vertex="1">
                    <mxGeometry x="-280" y="280" width="160" height="86" as="geometry"/>
                </mxCell>
                <mxCell id="94" value="- values: str" style="text;strokeColor=none;fillColor=none;align=left;verticalAlign=top;spacingLeft=4;spacingRight=4;overflow=hidden;rotatable=0;points=[[0,0.5],[1,0.5]];portConstraint=eastwest;" parent="93" vertex="1">
                    <mxGeometry y="26" width="160" height="26" as="geometry"/>
                </mxCell>
                <mxCell id="95" value="" style="line;strokeWidth=1;fillColor=none;align=left;verticalAlign=middle;spacingTop=-1;spacingLeft=3;spacingRight=3;rotatable=0;labelPosition=right;points=[];portConstraint=eastwest;strokeColor=inherit;" parent="93" vertex="1">
                    <mxGeometry y="52" width="160" height="8" as="geometry"/>
                </mxCell>
                <mxCell id="96" value="+ values(str): void" style="text;strokeColor=none;fillColor=none;align=left;verticalAlign=top;spacingLeft=4;spacingRight=4;overflow=hidden;rotatable=0;points=[[0,0.5],[1,0.5]];portConstraint=eastwest;" parent="93" vertex="1">
                    <mxGeometry y="60" width="160" height="26" as="geometry"/>
                </mxCell>
                <mxCell id="97" value="Extends" style="endArrow=block;endSize=16;endFill=0;html=1;rounded=0;exitX=1;exitY=0;exitDx=0;exitDy=0;entryX=0;entryY=0.5;entryDx=0;entryDy=0;" parent="1" source="93" target="32" edge="1">
                    <mxGeometry x="0.005" width="160" relative="1" as="geometry">
                        <mxPoint x="-150" y="209" as="sourcePoint"/>
                        <mxPoint x="10" y="168" as="targetPoint"/>
                        <mxPoint as="offset"/>
                    </mxGeometry>
                </mxCell>
                <mxCell id="98" value="Agregator" style="swimlane;fontStyle=1;align=center;verticalAlign=top;childLayout=stackLayout;horizontal=1;startSize=26;horizontalStack=0;resizeParent=1;resizeParentMax=0;resizeLast=0;collapsible=1;marginBottom=0;" parent="1" vertex="1">
                    <mxGeometry x="-50" y="-320" width="160" height="160" as="geometry"/>
                </mxCell>
                <mxCell id="99" value="- column: str" style="text;strokeColor=none;fillColor=none;align=left;verticalAlign=top;spacingLeft=4;spacingRight=4;overflow=hidden;rotatable=0;points=[[0,0.5],[1,0.5]];portConstraint=eastwest;" parent="98" vertex="1">
                    <mxGeometry y="26" width="160" height="26" as="geometry"/>
                </mxCell>
                <mxCell id="100" value="" style="line;strokeWidth=1;fillColor=none;align=left;verticalAlign=middle;spacingTop=-1;spacingLeft=3;spacingRight=3;rotatable=0;labelPosition=right;points=[];portConstraint=eastwest;strokeColor=inherit;" parent="98" vertex="1">
                    <mxGeometry y="52" width="160" height="8" as="geometry"/>
                </mxCell>
                <mxCell id="101" value="+ Agregator(column:str)&#10;+ count(): column&#10;+ sum(): column&#10;+ avg(): column&#10;+ min(): column&#10;+ max(): column" style="text;strokeColor=none;fillColor=none;align=left;verticalAlign=top;spacingLeft=4;spacingRight=4;overflow=hidden;rotatable=0;points=[[0,0.5],[1,0.5]];portConstraint=eastwest;" parent="98" vertex="1">
                    <mxGeometry y="60" width="160" height="100" as="geometry"/>
                </mxCell>
                <mxCell id="102" value="" style="endArrow=open;endFill=1;endSize=12;html=1;rounded=0;exitX=0.5;exitY=0;exitDx=0;exitDy=0;" parent="1" source="29" target="101" edge="1">
                    <mxGeometry width="160" relative="1" as="geometry">
                        <mxPoint x="-60" y="-90" as="sourcePoint"/>
                        <mxPoint x="100" y="-90" as="targetPoint"/>
                    </mxGeometry>
                </mxCell>
            </root>
        </mxGraphModel>
    </diagram>
</mxfile>